<?xml version="1.0" standalone="no"?>
<!DOCTYPE svg PUBLIC "-//W3C//DTD SVG 20010904//EN"
 "http://www.w3.org/TR/2001/REC-SVG-20010904/DTD/svg10.dtd">
<svg version="1.0" xmlns="http://www.w3.org/2000/svg"
 width="1077.000000pt" height="1077.000000pt" viewBox="0 0 1077.000000 1077.000000"
 preserveAspectRatio="xMidYMid meet">
<metadata>
Created by potrace 1.11, written by Peter Selinger 2001-2013
</metadata>
<g transform="translate(0.000000,1077.000000) scale(0.100000,-0.100000)"
fill="#000000" stroke="none">
<path d="M3050 10759 c-191 -7 -224 -13 -217 -40 4 -15 0 -19 -19 -19 -14 0
-27 -7 -30 -15 -4 -8 -10 -12 -15 -9 -20 12 -59 -26 -59 -55 0 -16 -7 -42 -15
-58 -8 -15 -17 -45 -20 -66 -5 -32 -9 -37 -26 -32 -14 5 -19 2 -19 -12 0 -21
-50 -72 -50 -52 0 11 -2 11 -9 0 -8 -12 -12 -10 -21 10 l-12 25 -33 -33 c-25
-25 -42 -33 -72 -34 -21 0 -32 -3 -25 -6 20 -8 13 -23 -11 -23 -13 0 -32 -9
-42 -20 -10 -11 -29 -20 -42 -20 -12 0 -23 -5 -23 -11 0 -5 -4 -8 -9 -4 -5 3
-12 1 -16 -5 -3 -6 -21 -16 -38 -24 -18 -8 -57 -35 -87 -61 -83 -70 -89 -75
-101 -75 -6 0 -8 -8 -5 -18 5 -13 -5 -25 -39 -46 -25 -16 -45 -35 -45 -42 0
-7 -12 -20 -27 -28 -36 -19 -27 -19 80 3 48 10 90 14 93 10 6 -10 6 -10 -91
-35 -96 -24 -385 -122 -412 -140 -12 -8 -33 -14 -45 -14 -29 0 -128 -46 -128
-59 0 -6 -21 -22 -47 -37 -27 -14 -74 -44 -105 -65 -31 -22 -61 -39 -65 -39
-5 0 -32 -20 -60 -45 -47 -41 -52 -50 -55 -93 l-3 -47 -17 30 -16 30 -101 -99
c-55 -55 -113 -117 -127 -138 -15 -21 -33 -38 -41 -38 -27 0 -163 -143 -163
-172 0 -4 8 -8 18 -8 13 -1 11 -5 -11 -21 -24 -19 -83 -97 -112 -150 -5 -10
-17 -20 -26 -22 -10 -3 -27 -23 -38 -46 -12 -22 -39 -69 -61 -102 -22 -34 -40
-68 -40 -74 0 -7 -18 -58 -40 -112 -43 -109 -145 -487 -128 -477 12 8 4 -146
-13 -242 -5 -30 -13 -80 -19 -111 -5 -32 -10 -80 -10 -108 l0 -49 -52 49 c-50
48 -50 49 -21 10 39 -51 75 -123 70 -138 -2 -7 -19 10 -38 37 -19 27 -47 67
-64 90 l-30 41 -3 -599 -2 -599 24 -53 c13 -29 36 -60 50 -69 20 -13 26 -25
26 -54 0 -35 -1 -35 -13 -12 -6 14 -18 26 -26 29 -17 6 -12 -24 13 -80 9 -21
12 -38 6 -38 -13 0 -39 52 -61 120 -17 54 -17 49 -18 -367 -1 -363 1 -423 14
-423 23 0 116 21 163 36 63 21 118 18 143 -7 19 -19 20 -19 16 -2 -3 10 -11
38 -17 63 -27 103 -91 289 -105 300 -8 7 -15 18 -15 24 0 6 -16 44 -35 85 -37
76 -44 104 -23 83 7 -7 23 -12 37 -13 15 0 21 -3 15 -5 -20 -8 27 -105 56
-117 20 -8 22 -11 8 -14 -22 -5 -23 -17 -4 -32 7 -6 16 -30 19 -52 3 -23 11
-47 18 -53 9 -8 10 -6 6 13 -4 14 -2 20 3 15 5 -5 14 -43 21 -84 13 -86 47
-178 85 -227 25 -33 26 -59 2 -35 -7 7 -18 12 -25 12 -20 0 12 -46 74 -105 29
-28 53 -57 53 -64 0 -11 -3 -11 -15 -1 -24 20 -19 -6 9 -43 13 -18 27 -42 30
-54 4 -11 13 -27 21 -33 19 -16 19 -30 0 -30 -8 0 -15 -4 -15 -10 0 -5 11 -10
25 -10 25 0 33 -14 15 -25 -6 -4 -4 -17 5 -36 9 -16 11 -29 5 -29 -15 0 -12
-56 6 -98 8 -20 14 -50 13 -67 -4 -55 1 -73 20 -78 21 -5 57 -54 47 -64 -3 -4
-15 3 -26 15 -27 29 -32 28 -20 -3 18 -47 38 -80 61 -100 19 -17 22 -18 16 -3
-8 22 2 23 31 2 25 -17 28 -64 5 -71 -7 -3 -9 3 -6 16 6 25 -15 29 -24 5 -3
-9 -1 -52 6 -97 7 -54 8 -84 1 -91 -7 -7 -10 3 -10 29 -1 37 -2 39 -15 21 -10
-13 -15 -43 -15 -81 0 -34 -5 -66 -12 -73 -9 -9 -8 -15 7 -26 18 -13 18 -14 0
-23 -29 -16 -32 -99 -6 -158 30 -69 27 -161 -5 -134 -12 10 -14 1 -14 -49 0
-60 -15 -95 -22 -50 -5 38 -22 26 -36 -27 -8 -27 -21 -58 -29 -67 -17 -19 -10
-52 9 -46 7 3 16 18 20 36 5 17 13 34 19 38 8 4 9 -1 4 -17 -19 -63 -35 -87
-64 -100 -35 -16 -38 -27 -15 -71 15 -29 17 -30 27 -12 10 19 54 64 63 64 12
0 1 -20 -27 -49 -28 -30 -29 -34 -16 -54 8 -12 27 -26 43 -32 16 -5 32 -14 35
-18 11 -16 45 2 58 29 11 25 13 26 30 10 17 -16 19 -15 25 6 3 13 6 33 6 46 0
12 5 22 10 22 6 0 10 -11 10 -25 0 -34 18 -32 26 3 12 54 16 62 30 62 8 0 14
10 14 24 0 14 5 28 10 31 8 5 7 11 -1 21 -9 11 -9 23 1 54 7 21 10 55 7 76 -3
20 -2 45 3 54 7 13 4 32 -11 64 -22 52 -22 91 1 91 11 0 14 -10 12 -40 l-3
-40 35 55 c20 30 36 61 36 70 0 9 5 21 10 26 17 17 18 198 2 217 -8 9 -11 21
-7 27 3 5 -1 10 -10 10 -24 0 -31 31 -10 46 20 15 17 32 -34 172 -34 91 -36
102 -21 102 6 0 10 -7 10 -15 0 -8 6 -15 13 -15 17 0 53 73 38 78 -15 5 -14
23 4 36 14 11 3 48 -59 188 l-16 37 63 37 c34 20 66 39 70 42 5 2 4 -4 -1 -15
-8 -15 -7 -22 8 -31 11 -6 24 -31 30 -54 23 -90 102 -330 107 -325 3 3 -9 48
-25 99 -59 180 -72 238 -53 238 14 0 47 -79 61 -145 7 -33 18 -73 25 -90 7
-16 30 -87 51 -157 20 -71 39 -126 41 -124 2 2 -12 68 -32 146 -39 156 -41
195 -10 195 14 0 22 -12 33 -50 56 -202 94 -279 192 -396 33 -38 32 -69 -1
-69 -22 0 -47 34 -55 77 -7 35 -24 55 -24 28 0 -53 60 -125 105 -125 21 0 23
-6 30 -76 4 -42 3 -108 -2 -147 l-8 -72 -5 75 c-6 84 -8 82 -45 -50 -23 -84
-59 -180 -86 -232 -5 -10 -9 -27 -9 -38 0 -12 -13 -56 -29 -98 -39 -106 -51
-145 -51 -170 0 -12 -4 -30 -10 -40 -10 -18 -34 -101 -56 -192 -31 -132 -115
-377 -155 -451 -10 -20 -18 -48 -17 -62 1 -13 -10 -55 -24 -93 -14 -38 -50
-141 -79 -229 -29 -88 -81 -223 -115 -300 -35 -77 -67 -161 -73 -185 -5 -25
-17 -61 -25 -80 -8 -19 -19 -77 -25 -129 -11 -90 -35 -171 -80 -274 -16 -37
-18 -53 -10 -68 6 -11 7 -40 4 -67 -13 -91 -55 -290 -69 -323 -8 -19 -19 -73
-25 -121 -7 -48 -21 -122 -31 -164 -11 -43 -20 -98 -20 -124 0 -30 -6 -52 -15
-60 -8 -7 -15 -17 -15 -23 0 -6 -49 -60 -108 -121 -97 -99 -110 -117 -121
-163 -13 -52 -8 -92 12 -105 6 -4 16 -24 22 -45 9 -34 15 -39 50 -45 51 -9
574 -10 826 -1 l195 6 -7 73 c-4 40 -19 113 -32 161 -46 159 -47 140 25 373
11 36 22 75 23 88 2 13 8 28 13 35 6 7 29 60 52 119 26 69 65 142 110 210 63
94 73 115 101 223 19 73 50 157 79 215 26 52 53 113 60 135 7 22 18 47 25 55
6 8 19 52 27 96 19 97 80 229 141 302 77 92 74 84 81 214 6 95 14 140 38 212
17 50 35 99 40 109 5 10 16 44 24 74 8 31 28 85 45 119 37 79 57 136 52 150
-2 6 10 40 27 75 16 35 30 72 30 81 0 10 9 32 20 50 11 18 20 39 20 46 0 18
71 206 80 212 4 3 9 12 12 20 4 9 20 -15 41 -62 33 -71 41 -80 105 -123 60
-39 119 -96 146 -143 5 -8 12 -43 16 -78 8 -67 68 -201 115 -260 14 -17 -1 22
-35 91 -66 136 -79 170 -59 163 7 -2 17 -13 23 -24 6 -10 33 -49 59 -86 41
-57 50 -78 58 -135 12 -82 46 -160 103 -233 24 -30 50 -68 59 -85 13 -25 16
-26 17 -9 0 11 -4 24 -9 30 -9 9 -31 103 -31 127 1 24 30 -27 45 -78 8 -29 22
-59 31 -66 15 -12 15 -10 -1 21 -15 29 -16 33 -2 22 62 -52 311 -498 588
-1054 79 -159 101 -210 92 -219 -20 -20 -204 4 -311 40 -106 35 -122 37 -122
15 0 -24 115 -133 195 -186 169 -112 503 -262 569 -257 27 3 47 -7 107 -52
169 -127 442 -271 619 -327 175 -55 250 -67 430 -67 148 0 176 3 274 29 154
40 328 101 416 147 144 75 256 176 227 206 -4 4 -29 -1 -55 -10 -65 -23 -251
-22 -410 2 -68 11 -126 22 -129 25 -3 3 11 20 31 39 64 60 42 107 -67 143 -29
9 -67 23 -85 31 l-33 14 25 30 c14 17 29 43 32 57 3 15 6 30 7 34 3 8 225 167
253 180 12 6 26 20 32 33 12 25 146 188 186 224 14 14 26 28 26 33 0 26 186
267 428 556 75 90 141 174 146 188 6 13 18 24 28 24 10 0 18 4 18 9 0 5 18 27
41 50 27 29 47 41 62 39 18 -2 23 3 25 29 2 22 15 43 43 67 21 20 45 36 52 36
11 0 32 31 73 107 10 18 23 33 30 33 7 0 22 12 33 26 l20 25 6 -38 c11 -68 13
-69 14 -3 2 70 22 124 65 175 l25 30 0 -25 c0 -14 -9 -45 -20 -70 -12 -25 -25
-56 -30 -70 l-9 -25 19 23 c25 29 63 128 64 165 0 20 9 34 31 49 17 12 74 62
126 112 52 50 116 105 142 123 39 26 55 48 93 122 39 78 51 94 87 113 24 12
51 22 62 22 27 1 54 43 65 99 15 84 37 77 34 -11 -1 -32 1 -72 5 -91 7 -33 10
-26 52 96 24 73 48 129 53 126 5 -3 7 -40 4 -82 l-6 -76 32 99 c18 54 37 99
42 100 6 0 15 -28 21 -64 l10 -65 7 89 c7 97 18 122 37 86 9 -17 9 -32 0 -65
-7 -23 -10 -51 -8 -61 2 -11 12 15 22 56 22 89 26 96 37 79 14 -22 10 -65 -6
-79 -11 -9 -15 -34 -15 -99 0 -80 -2 -89 -25 -111 -14 -13 -25 -28 -25 -34 1
-6 16 7 35 28 30 36 35 38 51 25 9 -7 25 -32 35 -54 10 -22 19 -34 19 -27 0 7
-14 42 -31 78 -30 62 -31 69 -24 142 4 42 8 104 9 137 0 33 5 61 10 63 12 4
36 -43 57 -113 l18 -60 -6 73 c-5 60 -3 72 9 72 21 0 35 -19 52 -66 l13 -39 7
32 c3 18 9 46 12 63 10 51 23 33 17 -24 -7 -67 3 -126 21 -126 8 0 43 -26 79
-57 36 -32 77 -66 91 -76 14 -10 43 -47 63 -82 21 -36 43 -65 50 -65 7 0 13
-7 13 -15 0 -8 5 -15 10 -15 6 0 20 -19 31 -42 17 -39 52 -93 79 -125 5 -7 10
-20 10 -31 0 -10 7 -27 15 -38 8 -10 15 -31 15 -47 0 -15 9 -35 20 -44 11 -10
20 -25 20 -35 0 -10 5 -18 10 -18 6 0 10 -9 10 -20 0 -11 7 -23 15 -27 51 -19
60 -153 12 -184 -13 -9 -1 -39 15 -39 8 0 29 14 47 31 21 19 41 29 52 26 12
-3 19 0 19 9 0 19 16 18 24 -2 5 -13 9 -14 20 -4 12 9 19 7 36 -12 11 -13 28
-31 37 -40 9 -10 22 -18 29 -18 8 0 11 -6 8 -14 -3 -8 4 -16 19 -19 29 -8 142
-106 141 -123 -1 -7 11 -17 26 -23 15 -5 41 -26 56 -47 16 -20 43 -52 59 -70
17 -18 39 -45 50 -61 36 -49 96 -114 280 -303 99 -102 205 -214 234 -250 30
-36 99 -107 153 -159 93 -88 217 -230 218 -248 1 -4 23 -25 51 -46 56 -44 145
-174 155 -227 4 -19 11 -38 17 -41 5 -4 22 -46 38 -95 16 -49 38 -97 49 -109
11 -11 26 -54 35 -100 9 -44 25 -96 35 -115 9 -19 24 -48 31 -65 12 -26 14 97
17 864 l2 895 -30 31 c-16 17 -30 34 -30 39 0 9 -78 112 -142 187 -26 31 -48
61 -48 66 0 5 -35 59 -78 121 -73 105 -353 422 -373 422 -5 0 -9 8 -9 18 0 10
-15 34 -34 53 -18 19 -55 70 -81 114 -26 44 -62 96 -79 116 -55 63 -91 112
-108 146 -15 30 -15 33 -1 33 14 0 14 2 -1 19 -9 10 -14 25 -11 33 4 9 -1 18
-10 22 -13 5 -14 10 -5 27 6 11 9 28 6 36 -4 9 1 27 10 40 11 18 13 28 5 36
-14 14 -14 54 -1 62 8 5 7 11 0 21 -9 10 -7 19 9 40 12 15 21 35 21 45 0 10 5
21 10 24 6 3 15 26 21 50 6 25 17 50 25 56 8 6 14 26 15 43 1 29 1 30 8 6 l7
-25 7 25 c4 14 7 39 7 57 0 31 21 63 42 63 6 0 5 6 -2 15 -11 13 -10 18 6 30
15 11 17 16 7 26 -17 17 -16 29 1 29 8 0 19 14 25 30 6 17 19 43 31 57 11 14
20 38 20 52 0 31 17 52 35 45 13 -5 28 123 40 341 3 55 8 122 12 150 5 45 4
48 -11 36 -9 -7 -19 -31 -22 -52 -4 -22 -11 -39 -17 -39 -6 0 -8 74 -5 209 2
115 0 207 -4 205 -4 -3 -8 -13 -8 -22 0 -9 -7 -30 -15 -46 -8 -15 -15 -39 -15
-52 0 -14 -7 -36 -16 -49 -9 -14 -14 -31 -11 -40 4 -8 1 -17 -4 -21 -6 -3 -19
-25 -30 -48 -24 -53 -41 -79 -56 -89 -7 -4 -13 -14 -13 -21 0 -7 -12 -19 -26
-26 -16 -9 -24 -20 -21 -31 3 -10 -4 -26 -14 -35 -10 -9 -19 -23 -19 -31 0 -7
-3 -13 -7 -13 -5 0 -19 -10 -33 -21 -16 -13 -19 -19 -8 -15 25 8 32 -11 8 -24
-12 -7 -22 -25 -26 -50 -4 -22 -10 -37 -15 -34 -5 3 -9 0 -9 -5 0 -6 -6 -10
-12 -9 -7 2 -12 -3 -10 -10 3 -15 -14 -34 -47 -51 -17 -10 -20 -15 -11 -21 9
-6 8 -10 -6 -19 -15 -8 -15 -11 -4 -11 8 -1 4 -6 -10 -11 -23 -10 -24 -11 -7
-23 16 -13 16 -14 -5 -20 -22 -7 -22 -7 -3 -16 18 -7 18 -9 4 -15 -10 -3 -25
-5 -35 -3 -12 2 -20 -4 -22 -17 -2 -11 -19 -35 -38 -54 -19 -19 -34 -45 -34
-57 0 -16 -4 -22 -14 -18 -11 4 -18 -4 -24 -28 -8 -31 -11 -33 -54 -36 -28 -2
-69 5 -104 17 -32 12 -66 21 -75 21 -9 0 -22 7 -29 15 -7 8 -19 15 -28 15 -8
0 -31 14 -51 31 -20 17 -65 52 -101 78 -38 28 -63 54 -61 62 14 52 13 59 -12
70 -23 10 -25 18 -30 88 -4 65 -1 84 20 131 13 30 31 66 39 78 15 23 16 23 35
6 24 -21 27 -53 4 -34 -9 7 -19 10 -22 6 -4 -4 -1 -11 7 -16 16 -10 70 -14 70
-4 0 3 -14 22 -31 44 -36 45 -35 69 6 90 24 11 26 15 12 18 -26 5 -17 35 15
46 22 8 37 5 71 -12 53 -27 82 -29 50 -4 -19 14 -24 30 -29 92 -6 73 -5 76 27
119 32 43 34 44 39 20 5 -20 7 -21 13 -6 3 9 14 17 23 17 13 0 15 7 10 33 -7
39 19 137 37 137 7 0 18 -5 25 -12 19 -19 27 0 8 21 -10 11 -13 22 -8 25 6 3
8 31 5 65 l-6 59 48 -6 c54 -6 57 11 4 22 -31 6 -32 7 -14 26 17 19 19 19 38
3 20 -17 20 -17 13 2 -20 49 -20 59 -2 52 17 -7 17 1 -1 51 -3 6 -1 12 4 12 5
0 28 -36 52 -80 23 -44 43 -80 44 -80 1 0 1 24 -1 52 -2 46 -1 50 10 33 7 -11
12 -44 11 -72 0 -29 4 -50 8 -47 15 9 10 87 -12 173 -11 45 -18 86 -14 89 4 4
10 2 12 -4 8 -22 31 -49 37 -43 4 3 9 36 13 72 3 37 9 64 13 62 15 -10 30 50
30 123 0 42 4 83 9 91 14 22 24 -5 17 -47 -6 -41 8 -18 18 29 5 25 10 26 81
32 42 4 110 18 152 32 84 29 247 104 240 111 -2 3 -58 -19 -123 -47 -102 -45
-133 -54 -215 -62 -93 -9 -168 -2 -172 16 -1 5 52 26 118 48 66 21 127 43 135
48 30 20 2 19 -63 -1 -38 -11 -70 -19 -71 -17 -2 2 -7 19 -11 37 -5 24 -3 32
8 32 13 0 50 70 67 125 5 17 16 20 85 23 169 7 216 4 235 -13 15 -14 22 -14
40 -5 22 12 22 11 17 -21 -3 -19 -9 -70 -12 -114 -3 -44 -15 -130 -27 -192
-15 -87 -19 -143 -16 -250 3 -138 15 -194 29 -143 6 21 7 19 8 -13 1 -25 -4
-40 -14 -43 -10 -4 -15 -21 -15 -53 0 -25 -4 -63 -9 -83 -5 -21 -5 -38 -1 -38
4 0 4 -17 -1 -37 -5 -21 -12 -101 -15 -177 -6 -113 -5 -138 6 -131 10 6 11 2
6 -20 -5 -20 -2 -33 11 -47 15 -16 19 -42 21 -139 2 -65 -2 -149 -8 -186 -18
-100 -23 -251 -11 -318 6 -32 22 -75 36 -95 30 -43 55 -177 56 -299 0 -47 4
-122 9 -166 4 -46 4 -85 -1 -91 -21 -26 72 -164 111 -164 19 0 30 -36 30 -99
0 -20 6 -46 14 -57 8 -11 28 -76 46 -144 33 -127 63 -198 90 -210 8 -4 26 -12
39 -19 23 -13 23 -12 17 24 -5 23 -4 35 2 31 5 -3 13 -21 16 -41 8 -39 23 -54
32 -30 6 14 8 14 20 -2 13 -17 13 -17 14 0 0 19 25 23 35 6 4 -6 14 -8 23 -4
8 3 19 0 24 -7 11 -18 10 -68 -2 -68 -5 0 -10 4 -10 9 0 5 -8 11 -17 15 -10 3
-24 9 -30 12 -18 8 -16 -24 2 -42 8 -9 15 -24 15 -35 0 -11 6 -22 14 -25 8 -3
12 -12 9 -20 -7 -18 11 -18 27 0 6 8 17 13 24 10 8 -3 12 20 13 86 1 78 -1 89
-14 78 -17 -13 -33 3 -33 35 0 19 35 59 44 50 3 -4 6 10 6 30 0 32 -3 36 -22
34 -14 -1 -23 4 -26 16 -3 15 1 17 21 11 25 -6 25 -4 22 36 -2 32 -8 45 -26
54 -12 6 -36 34 -53 61 -40 66 -77 101 -101 96 -17 -3 -17 -1 -6 12 18 22 11
63 -11 59 -22 -3 -42 58 -34 106 11 61 9 83 -8 110 -5 8 -14 35 -22 60 -24 86
-51 152 -68 171 -11 12 -13 20 -6 23 16 5 19 74 3 70 -7 -1 -13 5 -13 14 0 8
-7 23 -16 31 -12 13 -14 25 -9 52 4 20 9 56 10 81 3 86 5 96 14 81 12 -18 24
3 16 29 -3 10 -7 65 -9 122 -1 57 -7 112 -14 123 -10 18 -11 18 -12 -10 -1
-16 -5 -39 -10 -50 -12 -29 -13 76 -1 108 8 20 6 29 -8 41 -15 14 -17 28 -13
85 3 51 0 81 -13 115 -16 43 -17 49 -2 84 9 20 20 51 25 67 8 25 14 30 37 27
23 -3 26 0 20 15 -11 27 -22 81 -30 148 -8 57 -8 59 -17 28 -5 -18 -10 -33
-11 -33 -1 0 -2 94 -2 208 0 182 -2 213 -19 250 -16 35 -17 49 -9 84 l11 43 1
-42 c1 -47 21 -70 22 -26 0 15 4 37 9 48 8 19 9 19 9 -2 1 -13 6 -23 13 -23 8
0 9 27 4 98 -25 353 -25 332 -5 389 15 40 21 95 26 222 7 183 2 201 -41 158
-26 -26 -36 -19 -36 24 0 15 7 19 36 19 l37 0 -7 38 c-3 20 -6 47 -6 60 0 13
-4 21 -8 18 -4 -2 -9 50 -9 116 -1 68 -7 126 -13 132 -18 18 -11 36 33 84 24
26 53 60 65 76 30 40 28 19 -3 -26 -23 -34 -45 -112 -45 -160 0 -17 5 -19 30
-13 36 8 40 -2 6 -15 -31 -11 -45 -70 -26 -105 8 -16 11 -42 7 -74 -3 -29 0
-80 8 -118 27 -137 31 -364 5 -348 -13 8 -20 -23 -20 -93 l0 -67 20 44 c11 23
17 48 14 53 -4 6 2 8 17 3 31 -9 40 -18 43 -41 4 -26 26 -30 26 -5 0 32 15 25
29 -14 7 -19 17 -33 22 -30 11 8 11 -6 0 -24 -5 -8 -18 -12 -31 -8 -17 4 -20
2 -14 -11 13 -30 17 -113 5 -125 -8 -8 -11 -4 -11 13 -1 24 -1 24 -15 6 -21
-27 -19 -36 8 -37 l22 0 -22 -11 c-31 -15 -29 -28 5 -29 27 0 27 -1 5 -11 -13
-6 -23 -17 -23 -25 0 -19 -38 -16 -43 5 -3 9 -5 -8 -6 -38 -2 -47 -4 -52 -12
-30 -6 14 -11 55 -11 92 -1 38 -5 68 -9 68 -4 0 -12 19 -17 43 l-10 42 -1 -42
c-1 -23 4 -88 10 -143 9 -86 9 -111 -6 -169 -24 -99 -19 -499 7 -528 15 -16
16 -24 6 -50 -8 -22 -9 -38 -1 -55 9 -21 11 -18 22 29 11 45 10 55 -4 77 -14
22 -15 26 -3 26 23 0 66 104 47 115 -16 11 -10 25 11 25 11 0 20 5 20 10 0 6
6 10 14 10 22 0 40 54 26 80 -12 23 -7 50 10 50 5 0 10 -11 10 -25 0 -14 5
-25 10 -25 6 0 8 11 4 25 -5 21 -3 25 15 25 22 0 29 24 11 35 -18 11 -11 33 9
28 14 -3 21 3 29 27 7 18 16 29 22 25 12 -7 40 12 40 27 0 7 -4 7 -12 0 -9 -7
-21 -3 -43 14 -16 13 -25 24 -18 24 6 0 19 3 29 7 12 4 15 3 10 -5 -8 -13 22
-16 40 -4 5 4 11 33 12 65 2 45 -1 57 -13 57 -8 0 -15 5 -15 11 0 6 7 9 15 5
13 -5 15 94 15 852 l0 858 -63 -6 c-34 -4 -72 -12 -82 -17 -11 -6 -44 -16 -74
-23 -30 -7 -66 -19 -80 -26 -14 -8 -50 -14 -80 -14 -46 0 -52 -2 -41 -15 9
-11 9 -15 1 -15 -6 0 -16 12 -21 26 -9 21 -15 25 -35 20 -18 -5 -25 -2 -25 9
0 11 -11 15 -45 15 -25 0 -45 -4 -45 -8 0 -5 -16 -16 -36 -26 -32 -14 -36 -15
-31 -1 4 9 1 15 -8 15 -7 0 -31 -27 -51 -60 -21 -34 -40 -56 -44 -50 -4 6 -18
-2 -35 -20 -22 -22 -38 -30 -65 -30 -20 0 -41 -5 -47 -11 -25 -25 -43 35 -59
197 -8 87 -19 163 -24 168 -7 7 -10 -2 -10 -24 0 -19 -5 -42 -11 -50 -7 -11
-8 8 -4 65 3 44 2 95 -4 112 -15 52 6 49 33 -4 14 -26 25 -41 25 -33 1 8 -25
61 -57 116 -32 56 -64 121 -71 145 -7 24 -18 54 -24 67 -8 16 -7 26 1 34 9 9
12 8 12 -5 0 -10 8 -17 19 -17 11 0 21 -9 25 -22 7 -28 105 -162 113 -155 3 3
-9 26 -26 52 -17 25 -42 75 -57 113 -25 63 -78 163 -118 225 -10 15 -15 27
-12 27 4 0 42 -18 86 -40 44 -22 80 -38 80 -36 0 3 -33 26 -72 52 -125 83
-198 161 -198 212 0 10 10 27 22 38 l22 19 -18 -29 c-16 -25 -16 -30 -3 -43
12 -13 15 -11 20 16 5 23 16 35 48 50 23 11 45 18 49 16 11 -7 119 45 156 74
20 16 37 21 56 17 23 -5 28 -2 28 14 0 17 5 19 25 14 18 -5 25 -2 25 9 0 10
14 18 40 22 25 4 40 12 40 21 0 17 31 19 47 3 8 -8 16 -6 31 9 13 13 31 19 51
18 17 -1 31 1 31 5 0 4 14 12 30 18 17 5 30 15 30 20 0 6 7 11 17 11 9 0 31
11 50 26 18 14 33 20 33 15 0 -6 5 -11 10 -11 6 0 10 9 10 20 0 12 5 17 14 14
7 -3 16 3 20 13 5 13 9 14 15 5 5 -9 19 -4 51 20 84 64 79 62 95 48 13 -10 15
-9 16 11 0 13 3 18 6 12 8 -20 26 -15 63 17 19 16 45 29 56 30 13 0 24 8 27
21 4 16 11 20 26 16 21 -5 21 -4 21 444 0 389 -2 448 -15 443 -8 -3 -17 -14
-20 -25 -8 -24 -21 -24 -35 -1 -10 15 -11 14 -7 -5 4 -19 1 -23 -18 -23 -13 0
-26 -7 -29 -16 -4 -11 -14 -15 -32 -11 -20 3 -28 0 -31 -14 -4 -13 -11 -18
-23 -14 -12 4 -26 -5 -43 -25 -14 -16 -32 -30 -40 -30 -23 0 -87 -29 -87 -40
0 -6 -7 -10 -15 -10 -9 0 -18 -7 -21 -15 -4 -10 -13 -13 -25 -10 -13 5 -19 1
-19 -10 0 -11 -5 -15 -15 -11 -11 4 -15 -2 -15 -21 0 -25 -1 -26 -20 -8 -17
16 -21 16 -35 2 -8 -9 -15 -23 -15 -32 0 -13 -6 -16 -25 -11 -14 4 -25 2 -25
-3 0 -5 -10 -7 -22 -4 -21 4 -22 3 -5 -10 20 -16 22 -27 5 -27 -6 0 -20 -8
-30 -17 -16 -14 -21 -15 -28 -3 -7 11 -11 10 -25 -3 -9 -10 -23 -17 -30 -17
-8 0 -19 -9 -25 -20 -6 -11 -18 -20 -26 -20 -29 0 -74 -31 -90 -61 -8 -17 -18
-28 -21 -25 -4 3 -12 1 -20 -5 -9 -9 -13 -8 -13 0 0 24 -19 10 -22 -16 -2 -16
-8 -28 -15 -28 -6 0 -15 -3 -19 -7 -4 -5 -12 -8 -17 -8 -6 0 0 12 14 26 l24
27 -32 -17 c-18 -9 -33 -24 -33 -32 0 -14 -3 -14 -15 -4 -10 9 -15 9 -15 1 0
-6 -7 -11 -15 -11 -8 0 -15 -7 -15 -15 0 -8 -9 -15 -20 -15 -11 0 -20 -7 -20
-15 0 -8 -9 -15 -19 -15 -11 0 -23 -4 -26 -10 -3 -5 -16 -10 -28 -10 -12 0
-41 -18 -65 -39 l-42 -39 -16 22 c-16 21 -16 21 -10 -6 4 -17 2 -28 -4 -28 -5
0 -10 7 -10 15 0 8 -4 15 -10 15 -5 0 -10 -7 -10 -15 0 -9 -11 -20 -24 -25
-13 -5 -26 -14 -28 -20 -3 -11 -54 -27 -116 -37 -19 -3 -36 -12 -39 -19 -3 -9
-13 -12 -24 -9 -15 5 -19 1 -19 -16 0 -18 -2 -19 -15 -9 -12 10 -15 10 -15 -1
0 -11 -2 -11 -10 1 -8 12 -10 12 -10 -5 l-1 -20 -15 20 c-15 19 -16 18 -11
-23 l5 -43 -58 53 c-89 80 -129 111 -198 152 -35 21 -85 60 -111 86 -26 26
-57 51 -69 54 -12 4 -22 12 -22 17 0 5 -8 13 -17 16 -10 4 -29 15 -42 25 -13
10 -32 18 -42 18 -11 0 -19 4 -19 10 0 12 -53 40 -77 40 -10 0 -36 14 -57 30
-22 17 -50 30 -62 30 -13 0 -38 9 -56 19 -90 53 -395 123 -618 142 -173 15
-553 6 -670 -15 -47 -9 -109 -16 -138 -16 -49 0 -52 1 -42 20 6 10 9 23 8 27
-1 4 2 24 5 43 4 19 3 117 -1 217 -4 112 -3 187 3 197 6 10 4 20 -7 33 -8 10
-19 28 -22 40 -10 32 -35 50 -46 33 -6 -9 -13 2 -26 36 -12 36 -25 53 -48 64
-22 11 -35 27 -46 58 l-14 42 -1681 -2 c-924 -1 -1754 -5 -1845 -9z m-600
-718 c0 -12 -29 -23 -41 -15 -5 3 -7 10 -4 15 8 12 45 12 45 0z m123 2 c-7 -2
-21 -2 -30 0 -10 3 -4 5 12 5 17 0 24 -2 18 -5z m-318 -29 c-73 -13 -142 -18
-133 -8 9 9 99 22 153 22 50 0 50 0 -20 -14z m5415 -69 c0 -8 -4 -15 -10 -15
-5 0 -10 7 -10 15 0 8 5 15 10 15 6 0 10 -7 10 -15z m-770 -55 c0 -5 -4 -10
-10 -10 -5 0 -10 5 -10 10 0 6 5 10 10 10 6 0 10 -4 10 -10z m820 -20 c0 -5
-2 -10 -4 -10 -3 0 -8 5 -11 10 -3 6 -1 10 4 10 6 0 11 -4 11 -10z m-4710 -60
c0 -5 -4 -10 -10 -10 -5 0 -10 5 -10 10 0 6 5 10 10 10 6 0 10 -4 10 -10z
m730 -129 c0 -6 -4 -13 -10 -16 -5 -3 -10 1 -10 9 0 9 5 16 10 16 6 0 10 -4
10 -9z m3480 -22 c0 -6 -4 -7 -10 -4 -5 3 -10 11 -10 16 0 6 5 7 10 4 6 -3 10
-11 10 -16z m1150 -9 c0 -5 -4 -10 -10 -10 -5 0 -10 5 -10 10 0 6 5 10 10 10
6 0 10 -4 10 -10z m-140 -30 c0 -5 -5 -10 -11 -10 -5 0 -7 5 -4 10 3 6 8 10
11 10 2 0 4 -4 4 -10z m-6440 -129 c0 -6 -4 -13 -10 -16 -5 -3 -10 1 -10 9 0
9 5 16 10 16 6 0 10 -4 10 -9z m6725 -11 c8 -13 -5 -13 -25 0 -13 8 -13 10 2
10 9 0 20 -4 23 -10z m-35 -25 c8 -9 8 -15 2 -15 -18 0 -42 12 -42 21 0 14 26
10 40 -6z m-7325 -5 c3 -5 -1 -10 -9 -10 -8 0 -18 5 -21 10 -3 6 1 10 9 10 8
0 18 -4 21 -10z m7606 -23 c-1 -12 -15 -9 -19 4 -3 6 1 10 8 8 6 -3 11 -8 11
-12z m139 -8 c0 -6 -4 -7 -10 -4 -5 3 -10 11 -10 16 0 6 5 7 10 4 6 -3 10 -11
10 -16z m-180 1 c0 -5 -2 -10 -4 -10 -3 0 -8 5 -11 10 -3 6 -1 10 4 10 6 0 11
-4 11 -10z m-5264 -87 c-10 -10 -19 5 -10 18 6 11 8 11 12 0 2 -7 1 -15 -2
-18z m4228 11 c4 -9 4 -19 2 -21 -8 -8 -26 8 -26 23 0 19 16 18 24 -2z m-57
-10 c-3 -3 -12 -4 -19 -1 -8 3 -5 6 6 6 11 1 17 -2 13 -5z m-6640 -31 c-9 -9
-20 -14 -24 -10 -3 4 2 14 13 21 25 19 33 10 11 -11z m7307 -4 c5 -4 18 -3 28
2 28 15 35 3 13 -21 -23 -25 -41 -25 -55 0 -6 11 -17 20 -25 20 -8 0 -15 5
-15 11 0 11 38 3 54 -12z m562 -41 l29 -33 -32 29 c-31 28 -38 36 -30 36 2 0
16 -15 33 -32z m-90 -25 c-10 -10 -19 5 -10 18 6 11 8 11 12 0 2 -7 1 -15 -2
-18z m-7830 -10 c-10 -10 -19 5 -10 18 6 11 8 11 12 0 2 -7 1 -15 -2 -18z
m-166 -48 c-7 -8 -17 -15 -22 -15 -6 0 -5 7 2 15 7 8 17 15 22 15 6 0 5 -7 -2
-15z m7565 5 c3 -5 2 -10 -4 -10 -5 0 -13 5 -16 10 -3 6 -2 10 4 10 5 0 13 -4
16 -10z m-6170 -30 c-3 -5 -10 -10 -16 -10 -5 0 -9 5 -9 10 0 6 7 10 16 10 8
0 12 -4 9 -10z m6975 -11 c0 -6 -4 -7 -10 -4 -5 3 -10 11 -10 16 0 6 5 7 10 4
6 -3 10 -11 10 -16z m-8265 -18 c3 -5 1 -12 -5 -16 -5 -3 -10 1 -10 9 0 18 6
21 15 7z m2120 -20 c-3 -6 -14 -11 -23 -11 -15 1 -15 2 2 15 21 16 32 13 21
-4z m4590 -2 c0 -16 -51 -36 -62 -25 -10 10 36 48 51 43 6 -2 11 -10 11 -18z
m-6895 -24 c-13 -14 -26 -23 -28 -20 -3 3 5 16 18 30 13 14 26 23 28 20 3 -3
-5 -16 -18 -30z m365 7 c-3 -3 -11 0 -18 7 -9 10 -8 11 6 5 10 -3 15 -9 12
-12z m7310 -12 c10 -11 16 -20 13 -20 -3 0 -13 9 -23 20 -10 11 -16 20 -13 20
3 0 13 -9 23 -20z m875 -22 c0 -6 -6 -5 -15 2 -8 7 -15 14 -15 16 0 2 7 1 15
-2 8 -4 15 -11 15 -16z m-4675 2 c3 -6 -4 -10 -17 -10 -18 0 -20 2 -8 10 19
12 18 12 25 0z m-3745 -21 c-7 -11 -14 -18 -17 -15 -3 3 0 12 7 21 18 21 23
19 10 -6z m7755 1 c3 -5 1 -10 -4 -10 -6 0 -11 5 -11 10 0 6 2 10 4 10 3 0 8
-4 11 -10z m63 -19 c3 -8 -1 -12 -9 -9 -7 2 -15 10 -17 17 -3 8 1 12 9 9 7 -2
15 -10 17 -17z m162 -61 c0 -8 -9 -1 -20 15 -11 17 -20 35 -20 40 1 16 40 -38
40 -55z m230 50 c0 -5 -4 -10 -9 -10 -6 0 -13 5 -16 10 -3 6 1 10 9 10 9 0 16
-4 16 -10z m-5786 -45 c13 -19 13 -25 3 -25 -17 0 -37 20 -37 37 0 21 16 15
34 -12z m6086 -2 c0 -13 -3 -13 -15 -3 -8 7 -15 16 -15 21 0 5 7 6 15 3 8 -4
15 -13 15 -21z m-6474 -20 c-10 -10 -19 5 -10 18 6 11 8 11 12 0 2 -7 1 -15
-2 -18z m-2096 -8 c0 -8 -4 -15 -10 -15 -5 0 -7 7 -4 15 4 8 8 15 10 15 2 0 4
-7 4 -15z m8100 -65 c-20 -12 -33 -1 -19 16 9 11 15 12 23 4 8 -8 7 -13 -4
-20z m321 -42 c8 -15 8 -18 0 -14 -6 4 -16 16 -22 28 -8 15 -8 18 0 14 6 -4
16 -16 22 -28z m-7601 -42 c0 -3 -4 -8 -10 -11 -5 -3 -10 -1 -10 4 0 6 5 11
10 11 6 0 10 -2 10 -4z m7650 -38 c0 -13 -23 -5 -28 10 -2 7 2 10 12 6 9 -3
16 -11 16 -16z m-165 -18 c10 -11 16 -20 13 -20 -3 0 -13 9 -23 20 -10 11 -16
20 -13 20 3 0 13 -9 23 -20z m-7553 -32 c-7 -7 -12 -8 -12 -2 0 14 12 26 19
19 2 -3 -1 -11 -7 -17z m6658 2 c0 -5 -4 -10 -10 -10 -5 0 -10 5 -10 10 0 6 5
10 10 10 6 0 10 -4 10 -10z m950 -20 c0 -5 -2 -10 -4 -10 -3 0 -8 5 -11 10 -3
6 -1 10 4 10 6 0 11 -4 11 -10z m-35 -30 c3 -5 1 -10 -4 -10 -6 0 -11 5 -11
10 0 6 2 10 4 10 3 0 8 -4 11 -10z m505 -30 c0 -5 -2 -10 -4 -10 -3 0 -8 5
-11 10 -3 6 -1 10 4 10 6 0 11 -4 11 -10z m-8126 -65 c-4 -8 -8 -15 -10 -15
-2 0 -4 7 -4 15 0 8 4 15 10 15 5 0 7 -7 4 -15z m6026 -11 c0 -8 -5 -12 -10
-9 -6 4 -8 11 -5 16 9 14 15 11 15 -7z m2161 -21 c13 -16 12 -17 -3 -4 -10 7
-18 15 -18 17 0 8 8 3 21 -13z m-5371 -33 c0 -5 -5 -10 -11 -10 -5 0 -7 5 -4
10 3 6 8 10 11 10 2 0 4 -4 4 -10z m4976 -27 c-10 -10 -19 5 -10 18 6 11 8 11
12 0 2 -7 1 -15 -2 -18z m-8079 -25 c-3 -7 -5 -2 -5 12 0 14 2 19 5 13 2 -7 2
-19 0 -25z m7558 -17 c9 -28 26 -62 37 -77 15 -18 17 -25 7 -23 -24 8 -86 149
-65 149 3 0 12 -22 21 -49z m-985 -20 c0 -6 -4 -13 -10 -16 -5 -3 -10 1 -10 9
0 9 5 16 10 16 6 0 10 -4 10 -9z m462 -8 c10 -9 18 -20 18 -25 0 -13 -37 9
-44 27 -7 20 3 19 26 -2z m-5318 -8 c-4 -8 -8 -15 -10 -15 -2 0 -4 7 -4 15 0
8 4 15 10 15 5 0 7 -7 4 -15z m6340 -24 c-6 -6 -24 19 -24 34 1 6 7 1 15 -9 8
-11 12 -22 9 -25z m-8907 4 c-4 -8 -11 -15 -17 -15 -7 0 -7 6 0 21 13 23 26
19 17 -6z m7370 9 c-3 -3 -12 -4 -19 -1 -8 3 -5 6 6 6 11 1 17 -2 13 -5z
m-6006 -57 c-13 -13 -15 11 -4 40 7 16 8 15 11 -6 2 -13 -1 -28 -7 -34z m322
18 c-3 -9 -8 -14 -10 -11 -3 3 -2 9 2 15 9 16 15 13 8 -4z m6297 6 c0 -14 -18
-23 -30 -16 -6 4 -8 11 -5 16 8 12 35 12 35 0z m197 -23 c-3 -8 -6 -5 -6 6 -1
11 2 17 5 13 3 -3 4 -12 1 -19z m-7116 -41 c-13 -13 -15 11 -4 40 7 16 8 15
11 -6 2 -13 -1 -28 -7 -34z m6579 37 c0 -8 -5 -12 -10 -9 -6 4 -8 11 -5 16 9
14 15 11 15 -7z m907 -9 c-4 -8 -11 -15 -17 -15 -7 0 -7 6 0 21 13 23 26 19
17 -6z m375 -10 c-2 -14 -8 -25 -13 -25 -10 0 -12 43 -3 53 13 12 21 -3 16
-28z m-7334 -56 c-11 -33 -22 -58 -24 -56 -4 3 7 37 31 105 2 6 6 12 9 12 3 0
-5 -27 -16 -61z m5112 36 c0 -8 -4 -15 -10 -15 -5 0 -10 7 -10 15 0 8 5 15 10
15 6 0 10 -7 10 -15z m-5213 -17 c-3 -8 -6 -5 -6 6 -1 11 2 17 5 13 3 -3 4
-12 1 -19z m6733 1 c0 -6 -4 -7 -10 -4 -5 3 -10 11 -10 16 0 6 5 7 10 4 6 -3
10 -11 10 -16z m-7840 -9 c-6 -11 -13 -20 -16 -20 -2 0 0 9 6 20 6 11 13 20
16 20 2 0 0 -9 -6 -20z m7075 0 c-3 -5 -10 -10 -16 -10 -5 0 -9 5 -9 10 0 6 7
10 16 10 8 0 12 -4 9 -10z m-5265 -15 c-7 -9 -15 -13 -17 -11 -7 7 7 26 19 26
6 0 6 -6 -2 -15z m-823 -37 c-3 -7 -5 -2 -5 12 0 14 2 19 5 13 2 -7 2 -19 0
-25z m110 -25 c-3 -10 -5 -4 -5 12 0 17 2 24 5 18 2 -7 2 -21 0 -30z m1973 13
c0 -7 -7 -19 -15 -26 -16 -13 -20 -3 -9 24 8 20 24 21 24 2z m-3440 -10 c0 -3
-4 -8 -10 -11 -5 -3 -10 -1 -10 4 0 6 5 11 10 11 6 0 10 -2 10 -4z m7875 -6
c-3 -5 -11 -10 -16 -10 -6 0 -7 5 -4 10 3 6 11 10 16 10 6 0 7 -4 4 -10z
m-5504 -107 c-36 -70 -100 -172 -101 -159 0 17 124 239 128 228 2 -6 -10 -37
-27 -69z m174 57 c-3 -5 -11 -10 -16 -10 -6 0 -7 5 -4 10 3 6 11 10 16 10 6 0
7 -4 4 -10z m5011 -17 c-10 -10 -19 5 -10 18 6 11 8 11 12 0 2 -7 1 -15 -2
-18z m-6126 -15 c0 -5 -4 -8 -10 -8 -5 0 -10 10 -10 23 0 18 2 19 10 7 5 -8
10 -18 10 -22z m6860 -1 c0 -5 -4 -5 -10 -2 -5 3 -10 14 -10 23 0 15 2 15 10
2 5 -8 10 -19 10 -23z m-6726 -14 c-10 -16 -32 -52 -48 -82 -17 -30 -37 -56
-43 -59 -21 -6 -15 17 15 56 16 20 41 54 56 75 31 43 47 51 20 10z m340 -25
c-4 -24 -10 -47 -14 -51 -7 -8 -5 18 6 71 8 39 14 23 8 -20z m6223 20 c-3 -8
-6 -5 -6 6 -1 11 2 17 5 13 3 -3 4 -12 1 -19z m-6847 -45 c-1 -21 -7 -67 -15
-103 -13 -58 -14 -60 -10 -16 3 27 5 73 5 102 0 30 5 54 10 54 6 0 10 -17 10
-37z m6210 18 c0 -6 -4 -13 -10 -16 -5 -3 -10 1 -10 9 0 9 5 16 10 16 6 0 10
-4 10 -9z m1860 -12 c0 -11 -4 -17 -10 -14 -5 3 -10 13 -10 21 0 8 5 14 10 14
6 0 10 -9 10 -21z m-7902 -25 c-3 -14 -5 -12 -10 9 -3 19 -2 25 4 19 6 -6 8
-18 6 -28z m296 2 c-3 -9 -10 -16 -15 -16 -6 0 -5 9 1 21 13 24 24 20 14 -5z
m-1547 -33 c-3 -10 -5 -4 -5 12 0 17 2 24 5 18 2 -7 2 -21 0 -30z m294 4 c-8
-8 -11 -7 -11 4 0 20 13 34 18 19 3 -7 -1 -17 -7 -23z m1985 5 c-18 -16 -18
-16 -6 6 6 13 14 21 18 18 3 -4 -2 -14 -12 -24z m184 10 c0 -10 -7 -27 -15
-38 -13 -18 -14 -18 -9 6 9 38 13 50 19 50 3 0 5 -8 5 -18z m4190 3 c0 -8 -4
-15 -10 -15 -5 0 -10 7 -10 15 0 8 5 15 10 15 6 0 10 -7 10 -15z m-5130 -49
c0 -21 -49 -76 -68 -76 -10 0 -3 11 21 34 20 18 37 39 37 45 0 6 2 11 5 11 3
0 5 -6 5 -14z m445 -16 c-4 -12 -9 -19 -12 -17 -3 3 -2 15 2 27 4 12 9 19 12
17 3 -3 2 -15 -2 -27z m4270 20 c3 -5 1 -10 -4 -10 -6 0 -11 5 -11 10 0 6 2
10 4 10 3 0 8 -4 11 -10z m-3115 -10 c0 -5 -5 -10 -11 -10 -5 0 -7 5 -4 10 3
6 8 10 11 10 2 0 4 -4 4 -10z m5971 -83 c-12 -12 -16 -3 -25 53 l-5 35 20 -39
c14 -27 18 -41 10 -49z m-6239 51 c-7 -7 -12 -8 -12 -2 0 14 12 26 19 19 2 -3
-1 -11 -7 -17z m-2655 -10 c-3 -8 -6 -5 -6 6 -1 11 2 17 5 13 3 -3 4 -12 1
-19z m-117 2 c0 -5 -5 -10 -11 -10 -5 0 -7 5 -4 10 3 6 8 10 11 10 2 0 4 -4 4
-10z m1187 -37 c-4 -17 -4 -17 -12 0 -4 9 -4 25 0 35 8 16 8 16 12 0 3 -10 3
-26 0 -35z m3933 37 c0 -5 -4 -10 -10 -10 -5 0 -10 5 -10 10 0 6 5 10 10 10 6
0 10 -4 10 -10z m-4909 -33 c-13 -13 -26 -3 -16 12 3 6 11 8 17 5 6 -4 6 -10
-1 -17z m1745 -29 c-18 -26 -22 -17 -5 14 6 11 13 17 16 15 3 -3 -2 -16 -11
-29z m5184 11 c0 -5 -4 -9 -10 -9 -5 0 -10 7 -10 16 0 8 5 12 10 9 6 -3 10
-10 10 -16z m577 -11 c-3 -7 -5 -2 -5 12 0 14 2 19 5 13 2 -7 2 -19 0 -25z
m1427 20 c12 -38 15 -68 8 -68 -11 0 -42 66 -35 74 10 10 23 7 27 -6z m-7764
-79 c0 -21 -4 -39 -10 -39 -5 0 -10 21 -10 46 0 27 4 43 10 39 6 -3 10 -24 10
-46z m6910 20 c0 -5 -4 -9 -10 -9 -5 0 -10 7 -10 16 0 8 5 12 10 9 6 -3 10
-10 10 -16z m-8164 -36 c-10 -26 -18 -8 -9 23 5 21 8 24 11 11 2 -10 1 -25 -2
-34z m1174 22 c0 -14 -4 -25 -10 -25 -11 0 -14 33 -3 43 11 11 13 8 13 -18z
m5506 -83 c-12 -11 -15 5 -8 44 l7 39 3 -39 c2 -21 1 -41 -2 -44z m321 46 c-3
-7 -5 -2 -5 12 0 14 2 19 5 13 2 -7 2 -19 0 -25z m559 5 c-10 -10 -19 5 -10
18 6 11 8 11 12 0 2 -7 1 -15 -2 -18z m-246 -4 c0 -6 -4 -7 -10 -4 -5 3 -10
11 -10 16 0 6 5 7 10 4 6 -3 10 -11 10 -16z m-7693 -11 c-3 -8 -6 -5 -6 6 -1
11 2 17 5 13 3 -3 4 -12 1 -19z m8820 0 c-3 -8 -6 -5 -6 6 -1 11 2 17 5 13 3
-3 4 -12 1 -19z m-637 -3 c0 -8 -4 -15 -10 -15 -5 0 -7 7 -4 15 4 8 8 15 10
15 2 0 4 -7 4 -15z m-8346 -17 c16 -27 28 -108 16 -108 -13 0 -21 17 -35 76
-13 57 -5 70 19 32z m7356 12 c0 -5 -4 -10 -10 -10 -5 0 -10 5 -10 10 0 6 5
10 10 10 6 0 10 -4 10 -10z m2125 0 c3 -5 1 -10 -4 -10 -6 0 -11 5 -11 10 0 6
2 10 4 10 3 0 8 -4 11 -10z m-7129 -27 c-18 -35 -45 -70 -46 -60 0 10 49 87
55 87 3 0 -1 -12 -9 -27z m4722 1 c-7 -15 -14 -21 -16 -15 -5 16 5 41 17 41 7
0 6 -10 -1 -26z m-5248 -16 c0 -19 -2 -20 -10 -8 -13 19 -13 30 0 30 6 0 10
-10 10 -22z m6200 12 c0 -5 -5 -10 -11 -10 -5 0 -7 5 -4 10 3 6 8 10 11 10 2
0 4 -4 4 -10z m-6255 -30 c4 -6 3 -34 -1 -63 l-8 -52 -7 40 c-4 22 -8 50 -8
63 -1 23 13 30 24 12z m1359 -5 c-4 -8 -8 -15 -10 -15 -2 0 -4 7 -4 15 0 8 4
15 10 15 5 0 7 -7 4 -15z m3997 -22 c-10 -17 -10 -16 -11 3 0 23 13 41 18 25
2 -6 -1 -18 -7 -28z m2974 27 c-3 -5 -16 -10 -28 -10 -18 0 -19 2 -7 10 20 13
43 13 35 0z m70 0 c3 -5 1 -19 -5 -31 -15 -27 -35 -10 -25 20 7 22 20 27 30
11z m58 -5 c11 -7 26 -11 34 -8 10 4 14 2 12 -6 -4 -11 -24 -23 -121 -72 -31
-16 -32 -10 -6 19 15 15 31 39 37 55 12 30 18 32 44 12z m-9186 -27 c-3 -7 -5
-2 -5 12 0 14 2 19 5 13 2 -7 2 -19 0 -25z m290 10 c-3 -8 -6 -5 -6 6 -1 11 2
17 5 13 3 -3 4 -12 1 -19z m5880 -10 c-3 -8 -6 -5 -6 6 -1 11 2 17 5 13 3 -3
4 -12 1 -19z m-347 -26 c0 -13 -3 -12 -15 4 -19 25 -19 40 0 24 8 -7 15 -20
15 -28z m210 28 c0 -5 -2 -10 -4 -10 -3 0 -8 5 -11 10 -3 6 -1 10 4 10 6 0 11
-4 11 -10z m-5263 -22 c-3 -8 -6 -5 -6 6 -1 11 2 17 5 13 3 -3 4 -12 1 -19z
m5793 13 c0 -12 -20 -25 -27 -18 -7 7 6 27 18 27 5 0 9 -4 9 -9z m236 -47 c-4
-18 -11 -34 -15 -34 -5 0 -3 21 2 46 12 52 23 42 13 -12z m2261 49 c-4 -3 -2
-12 4 -19 8 -9 5 -18 -10 -33 -22 -22 -51 -28 -51 -12 0 11 49 71 58 71 3 0 2
-3 -1 -7z m-401 -40 c-10 -10 -19 5 -10 18 6 11 8 11 12 0 2 -7 1 -15 -2 -18z
m-3939 -5 c-3 -8 -6 -5 -6 6 -1 11 2 17 5 13 3 -3 4 -12 1 -19z m4533 -4 c0
-8 -4 -12 -10 -9 -5 3 -10 13 -10 21 0 8 5 12 10 9 6 -3 10 -13 10 -21z
m-9810 -9 c-7 -8 -16 -15 -21 -15 -5 0 -6 7 -3 15 4 8 13 15 21 15 13 0 13 -3
3 -15z m877 -17 c-3 -7 -5 -2 -5 12 0 14 2 19 5 13 2 -7 2 -19 0 -25z m453 -4
c0 -8 -4 -14 -10 -14 -5 0 -10 9 -10 21 0 11 5 17 10 14 6 -3 10 -13 10 -21z
m8394 -15 c-10 -11 -28 -26 -39 -31 -15 -9 -13 -4 8 21 15 18 27 38 27 44 0 8
3 8 12 -1 9 -9 7 -16 -8 -33z m-8394 -25 c0 -8 -4 -12 -10 -9 -5 3 -10 10 -10
16 0 5 5 9 10 9 6 0 10 -7 10 -16z m8451 -17 c-8 -8 -11 -7 -11 4 0 20 13 34
18 19 3 -7 -1 -17 -7 -23z m-8894 1 c-3 -8 -6 -5 -6 6 -1 11 2 17 5 13 3 -3 4
-12 1 -19z m1598 2 c-10 -11 -23 -20 -29 -20 -6 0 0 9 14 20 32 25 38 25 15 0z
m4162 -22 c-3 -7 -5 -2 -5 12 0 14 2 19 5 13 2 -7 2 -19 0 -25z m689 6 c-4 -9
-9 -15 -11 -12 -3 3 -3 13 1 22 4 9 9 15 11 12 3 -3 3 -13 -1 -22z m1894 -19
c-7 -9 -15 -13 -17 -11 -7 7 7 26 19 26 6 0 6 -6 -2 -15z m420 -4 c-10 -20
-30 -37 -30 -26 0 11 25 45 33 45 4 0 3 -9 -3 -19z m-2089 -24 c-8 -8 -11 -7
-11 4 0 9 3 19 7 23 4 4 9 2 11 -4 3 -7 -1 -17 -7 -23z m2279 9 c0 -2 -8 -10
-17 -17 -16 -13 -17 -12 -4 4 13 16 21 21 21 13z m-8631 -33 c0 -25 -1 -26 -9
-8 -12 27 -12 35 0 35 6 0 10 -12 9 -27z m5861 17 c0 -5 -2 -10 -4 -10 -3 0
-8 5 -11 10 -3 6 -1 10 4 10 6 0 11 -4 11 -10z m-7530 -10 c0 -12 -28 -25 -36
-17 -9 9 6 27 22 27 8 0 14 -5 14 -10z m7860 -30 c0 -11 -4 -20 -9 -20 -11 0
-22 26 -14 34 12 12 23 5 23 -14z m-7483 -12 c-3 -8 -6 -5 -6 6 -1 11 2 17 5
13 3 -3 4 -12 1 -19z m982 -33 l0 -20 -9 20 c-5 11 -9 27 -9 35 -1 13 0 13 9
0 5 -8 9 -24 9 -35z m8036 35 c3 -5 1 -10 -4 -10 -6 0 -11 5 -11 10 0 6 2 10
4 10 3 0 8 -4 11 -10z m-7054 -76 c-17 -37 -34 -65 -37 -62 -3 3 10 35 28 71
42 86 50 78 9 -9z m7289 55 c-7 -11 -14 -18 -17 -15 -3 3 0 12 7 21 18 21 23
19 10 -6z m-2112 -18 c3 -8 -1 -12 -9 -9 -7 2 -15 10 -17 17 -3 8 1 12 9 9 7
-2 15 -10 17 -17z m-5839 -58 c1 -7 -3 -13 -9 -13 -5 0 -10 17 -9 38 1 33 2
34 9 12 4 -14 8 -31 9 -37z m151 -54 c-7 -49 -17 -89 -21 -89 -12 0 -12 2 6
93 8 43 14 81 14 85 -3 17 3 26 8 13 3 -7 0 -54 -7 -102z m8320 57 c0 -3 -4
-8 -10 -11 -5 -3 -10 -1 -10 4 0 6 5 11 10 11 6 0 10 -2 10 -4z m-210 -46 c0
-5 -5 -10 -11 -10 -5 0 -7 5 -4 10 3 6 8 10 11 10 2 0 4 -4 4 -10z m60 1 c0
-6 -4 -13 -10 -16 -5 -3 -10 1 -10 9 0 9 5 16 10 16 6 0 10 -4 10 -9z m-3920
-16 c0 -8 -4 -15 -10 -15 -5 0 -10 7 -10 15 0 8 5 15 10 15 6 0 10 -7 10 -15z
m-4743 -42 c-3 -10 -5 -2 -5 17 0 19 2 27 5 18 2 -10 2 -26 0 -35z m6419 20
c-10 -10 -19 5 -10 18 6 11 8 11 12 0 2 -7 1 -15 -2 -18z m-5456 -18 c0 -14
-4 -25 -10 -25 -11 0 -14 33 -3 43 11 11 13 8 13 -18z m-313 -7 c-3 -8 -6 -5
-6 6 -1 11 2 17 5 13 3 -3 4 -12 1 -19z m5573 -4 c0 -8 -5 -12 -10 -9 -6 4 -8
11 -5 16 9 14 15 11 15 -7z m2415 6 c-3 -5 -10 -10 -16 -10 -5 0 -9 5 -9 10 0
6 7 10 16 10 8 0 12 -4 9 -10z m-8598 -37 c-3 -10 -5 -4 -5 12 0 17 2 24 5 18
2 -7 2 -21 0 -30z m7447 21 c3 -8 2 -12 -4 -9 -6 3 -10 10 -10 16 0 14 7 11
14 -7z m1092 -11 c-10 -10 -19 5 -10 18 6 11 8 11 12 0 2 -7 1 -15 -2 -18z
m-666 7 c0 -5 -7 -10 -16 -10 -8 0 -12 5 -9 10 3 6 10 10 16 10 5 0 9 -4 9
-10z m-6969 -83 c-13 -13 -15 21 -3 50 6 15 8 13 10 -11 2 -16 -1 -33 -7 -39z
m7609 42 c0 -6 -4 -7 -10 -4 -5 3 -10 11 -10 16 0 6 5 7 10 4 6 -3 10 -11 10
-16z m-7925 -97 c-10 -70 -18 -41 -9 35 6 43 10 57 12 39 2 -17 1 -50 -3 -74z
m-338 46 c-3 -8 -6 -5 -6 6 -1 11 2 17 5 13 3 -3 4 -12 1 -19z m8148 -8 c-3
-5 -13 -10 -21 -10 -8 0 -12 5 -9 10 3 6 13 10 21 10 8 0 12 -4 9 -10z m-635
-10 c0 -5 -4 -10 -10 -10 -5 0 -10 5 -10 10 0 6 5 10 10 10 6 0 10 -4 10 -10z
m-6873 -42 c-3 -8 -6 -5 -6 6 -1 11 2 17 5 13 3 -3 4 -12 1 -19z m8003 2 c0
-5 -7 -10 -16 -10 -8 0 -12 5 -9 10 3 6 10 10 16 10 5 0 9 -4 9 -10z m53 3
c-7 -2 -19 -2 -25 0 -7 3 -2 5 12 5 14 0 19 -2 13 -5z m-825 -14 c-2 -6 -8
-10 -13 -10 -5 0 -11 4 -13 10 -2 6 4 11 13 11 9 0 15 -5 13 -11z m-7808 -19
c-6 -11 -13 -20 -16 -20 -2 0 0 9 6 20 6 11 13 20 16 20 2 0 0 -9 -6 -20z
m880 -5 c-7 -9 -15 -13 -18 -10 -3 2 1 11 8 20 7 9 15 13 18 10 3 -2 -1 -11
-8 -20z m5415 15 c-3 -5 -13 -10 -21 -10 -8 0 -12 5 -9 10 3 6 13 10 21 10 8
0 12 -4 9 -10z m-1080 -100 c-9 -29 -26 -12 -18 18 4 15 9 20 15 14 6 -6 7
-20 3 -32z m-4655 -30 c-17 -32 -22 -18 -8 21 8 22 13 28 16 17 2 -9 -2 -27
-8 -38z m250 40 c0 -5 -4 -10 -10 -10 -5 0 -10 5 -10 10 0 6 5 10 10 10 6 0
10 -4 10 -10z m7690 -6 c0 -8 -4 -12 -10 -9 -5 3 -10 10 -10 16 0 5 5 9 10 9
6 0 10 -7 10 -16z m-2440 -16 c0 -19 -18 -43 -25 -36 -9 9 4 48 16 48 5 0 9
-6 9 -12z m-400 -13 c0 -8 -7 -15 -15 -15 -8 0 -15 7 -15 15 0 8 7 15 15 15 8
0 15 -7 15 -15z m2230 -9 c0 -16 -18 -31 -27 -22 -8 8 5 36 17 36 5 0 10 -6
10 -14z m-7124 -104 c-9 -8 -26 10 -26 26 1 15 2 15 15 -2 8 -11 13 -21 11
-24z m7271 22 c-3 -3 -12 -4 -19 -1 -8 3 -5 6 6 6 11 1 17 -2 13 -5z m189 -70
c-4 -13 -11 -24 -17 -24 -11 0 -4 64 9 85 10 14 15 -32 8 -61z m-2609 14 c-3
-7 -5 -2 -5 12 0 14 2 19 5 13 2 -7 2 -19 0 -25z m2883 -2 c0 -14 -4 -28 -10
-31 -6 -4 -10 7 -10 24 0 17 5 31 10 31 6 0 10 -11 10 -24z m-6030 5 c0 -12
-20 -25 -27 -18 -7 7 6 27 18 27 5 0 9 -4 9 -9z m-1696 -16 c3 -8 1 -15 -4
-15 -6 0 -10 7 -10 15 0 8 2 15 4 15 2 0 6 -7 10 -15z m6938 -37 c-12 -12 -24
-19 -28 -16 -3 4 4 16 16 28 12 12 24 19 28 16 3 -4 -4 -16 -16 -28z m-9408
16 c9 -3 14 -10 11 -14 -6 -9 -53 -1 -61 11 -6 10 26 12 50 3z m10141 -4 c3
-5 1 -10 -4 -10 -6 0 -11 5 -11 10 0 6 2 10 4 10 3 0 8 -4 11 -10z m-603 -15
c0 -5 -5 -11 -11 -13 -6 -2 -11 4 -11 13 0 9 5 15 11 13 6 -2 11 -8 11 -13z
m-558 -26 c-3 -5 -10 -7 -15 -3 -5 3 -7 10 -3 15 3 5 10 7 15 3 5 -3 7 -10 3
-15z m1216 13 c0 -5 -6 -16 -13 -25 -14 -21 -87 -36 -87 -18 0 6 15 11 34 11
25 0 35 5 39 20 5 19 27 29 27 12z m-682 -31 c3 -8 -1 -12 -9 -9 -7 2 -15 10
-17 17 -3 8 1 12 9 9 7 -2 15 -10 17 -17z m-599 2 c0 -5 -4 -17 -9 -28 -8 -18
-9 -17 -9 8 -1 15 4 27 9 27 6 0 10 -3 9 -7z m-8893 -54 c8 -17 14 -35 12 -41
-5 -13 -48 53 -48 71 0 19 19 3 36 -30z m6485 4 c-8 -15 -10 -15 -11 -2 0 17
10 32 18 25 2 -3 -1 -13 -7 -23z m809 -3 c0 -5 -4 -10 -10 -10 -5 0 -10 5 -10
10 0 6 5 10 10 10 6 0 10 -4 10 -10z m-5649 -32 c11 -21 11 -22 -4 -9 -10 7
-17 17 -17 22 0 15 9 10 21 -13z m-1151 -8 c0 -11 -4 -20 -10 -20 -5 0 -10 9
-10 20 0 11 5 20 10 20 6 0 10 -9 10 -20z m5960 -37 c-11 -17 -11 -17 -6 0 3
10 6 24 7 30 0 9 2 9 5 0 3 -7 0 -20 -6 -30z m77 -35 c-3 -8 -6 -5 -6 6 -1 11
2 17 5 13 3 -3 4 -12 1 -19z m-6732 2 c3 -5 2 -10 -4 -10 -5 0 -13 5 -16 10
-3 6 -2 10 4 10 5 0 13 -4 16 -10z m9655 0 c0 -5 -4 -10 -9 -10 -6 0 -13 5
-16 10 -3 6 1 10 9 10 9 0 16 -4 16 -10z m-7735 -40 c3 -5 2 -10 -4 -10 -5 0
-13 5 -16 10 -3 6 -2 10 4 10 5 0 13 -4 16 -10z m8410 -20 c-4 -12 -9 -19 -12
-17 -3 3 -2 15 2 27 4 12 9 19 12 17 3 -3 2 -15 -2 -27z m-7265 5 c0 -8 -4
-15 -10 -15 -5 0 -10 7 -10 15 0 8 5 15 10 15 6 0 10 -7 10 -15z m7540 -4 c0
-5 -6 -14 -14 -21 -8 -6 -17 -28 -19 -48 -3 -35 -4 -34 -5 9 -1 25 3 50 10 57
14 14 28 16 28 3z m-3470 -31 c0 -5 -4 -10 -10 -10 -5 0 -10 5 -10 10 0 6 5
10 10 10 6 0 10 -4 10 -10z m167 -32 c-3 -8 -6 -5 -6 6 -1 11 2 17 5 13 3 -3
4 -12 1 -19z m-1052 -18 c-20 -22 -31 -20 -22 5 4 8 14 15 23 15 16 0 16 -2
-1 -20z m3102 -16 c-3 -3 -12 -4 -19 -1 -8 3 -5 6 6 6 11 1 17 -2 13 -5z
m-3090 -20 c-3 -3 -12 -4 -19 -1 -8 3 -5 6 6 6 11 1 17 -2 13 -5z m4014 -45
c-8 -38 -9 -40 -10 -12 -1 17 2 39 5 48 11 29 14 10 5 -36z m-71 11 c0 -5 -5
-10 -11 -10 -5 0 -7 5 -4 10 3 6 8 10 11 10 2 0 4 -4 4 -10z m-2855 -37 c-17
-40 -23 -49 -29 -42 -7 7 25 79 35 79 5 0 2 -17 -6 -37z m-6895 7 c0 -11 -4
-20 -10 -20 -5 0 -10 9 -10 20 0 11 5 20 10 20 6 0 10 -9 10 -20z m10090 -26
c0 -8 -4 -12 -10 -9 -5 3 -10 10 -10 16 0 5 5 9 10 9 6 0 10 -7 10 -16z
m-3730 -4 c0 -5 -4 -10 -10 -10 -5 0 -10 5 -10 10 0 6 5 10 10 10 6 0 10 -4
10 -10z m2655 -99 c-7 -26 -7 -26 -17 -4 -6 13 -7 41 -3 70 l8 48 9 -44 c5
-24 6 -55 3 -70z m55 105 c0 -3 -4 -8 -10 -11 -5 -3 -10 -1 -10 4 0 6 5 11 10
11 6 0 10 -2 10 -4z m640 -16 c0 -5 -4 -10 -10 -10 -5 0 -10 5 -10 10 0 6 5
10 10 10 6 0 10 -4 10 -10z m-2898 -32 c-7 -7 -12 -8 -12 -2 0 14 12 26 19 19
2 -3 -1 -11 -7 -17z m278 -35 c0 -5 -5 -15 -10 -23 -8 -12 -10 -11 -10 8 0 12
5 22 10 22 6 0 10 -3 10 -7z m-800 -53 c0 -5 -5 -10 -11 -10 -5 0 -7 5 -4 10
3 6 8 10 11 10 2 0 4 -4 4 -10z m2320 0 c0 -5 -5 -10 -11 -10 -5 0 -7 5 -4 10
3 6 8 10 11 10 2 0 4 -4 4 -10z m-1240 -10 c0 -5 -4 -10 -10 -10 -5 0 -10 5
-10 10 0 6 5 10 10 10 6 0 10 -4 10 -10z m2330 -5 c0 -2 -10 -10 -22 -16 -21
-11 -22 -11 -9 4 13 16 31 23 31 12z m-746 -31 c10 -26 7 -129 -3 -118 -14 14
-26 134 -13 134 5 0 13 -7 16 -16z m846 -2 c0 -10 -7 -27 -15 -38 -13 -17 -14
-16 -5 16 6 19 10 36 10 37 0 2 2 3 5 3 3 0 5 -8 5 -18z m-3715 -52 c-3 -5
-13 -10 -21 -10 -8 0 -12 5 -9 10 3 6 13 10 21 10 8 0 12 -4 9 -10z m3764 -53
c1 -10 -3 -15 -9 -12 -5 3 -10 21 -9 38 0 27 2 29 9 12 5 -11 9 -28 9 -38z
m238 21 c-3 -8 -6 -5 -6 6 -1 11 2 17 5 13 3 -3 4 -12 1 -19z m35 -20 c-7 -7
-12 -8 -12 -2 0 14 12 26 19 19 2 -3 -1 -11 -7 -17z m-12 -48 c0 -5 -4 -10
-10 -10 -5 0 -10 5 -10 10 0 6 5 10 10 10 6 0 10 -4 10 -10z m-303 -32 c-3 -7
-5 -2 -5 12 0 14 2 19 5 13 2 -7 2 -19 0 -25z m-6876 -61 c-13 -13 -26 -3 -16
12 3 6 11 8 17 5 6 -4 6 -10 -1 -17z m-461 -18 c0 -6 -4 -7 -10 -4 -5 3 -10
11 -10 16 0 6 5 7 10 4 6 -3 10 -11 10 -16z m7392 -54 c-2 -25 -8 -45 -13 -45
-11 0 -11 29 -2 85 8 51 19 22 15 -40z m158 29 c0 -12 -2 -12 -14 -2 -8 7 -12
16 -9 21 7 11 23 -2 23 -19z m-5405 -12 c-10 -10 -155 -10 -155 0 0 4 26 8 58
9 31 0 66 4 77 8 20 8 34 -4 20 -17z m75 3 c0 -8 -7 -15 -15 -15 -8 0 -15 7
-15 15 0 8 7 15 15 15 8 0 15 -7 15 -15z m-260 -40 c-7 -8 -17 -12 -22 -9 -5
3 -1 15 9 26 20 22 32 6 13 -17z m350 -42 c0 -28 -29 -103 -40 -103 -5 0 -10
-12 -12 -27 -2 -23 -9 -29 -41 -35 -34 -7 -43 -5 -69 17 -40 34 -85 34 -98 0
-11 -29 -10 -29 -57 -10 -59 25 -65 33 -46 61 14 22 14 24 -1 18 -19 -7 -40
38 -31 67 9 27 28 24 23 -3 -4 -21 0 -23 43 -25 27 -2 51 2 54 7 7 11 68 14
79 3 4 -4 26 -12 49 -19 23 -6 50 -14 60 -19 15 -6 17 -1 17 48 0 82 5 91 41
65 17 -13 29 -31 29 -45z m3654 36 c-3 -5 -10 -7 -15 -3 -5 3 -7 10 -3 15 3 5
10 7 15 3 5 -3 7 -10 3 -15z m-2403 -7 c-5 -10 -18 -25 -28 -33 -12 -10 -11
-5 6 19 24 35 38 43 22 14z m3776 -4 c-3 -8 -6 -5 -6 6 -1 11 2 17 5 13 3 -3
4 -12 1 -19z m-5277 -8 c0 -5 -7 -10 -15 -10 -8 0 -15 5 -15 10 0 6 7 10 15
10 8 0 15 -4 15 -10z m114 -5 c3 -9 0 -15 -9 -15 -8 0 -15 7 -15 15 0 8 4 15
9 15 5 0 11 -7 15 -15z m-4736 -61 c2 -28 2 -28 -13 -10 -18 24 -20 49 -2 44
6 -3 13 -18 15 -34z m6622 27 c0 -5 -7 -14 -15 -21 -12 -10 -15 -10 -15 2 0 8
3 18 7 21 9 10 23 9 23 -2z m-680 -56 c0 -8 -4 -15 -10 -15 -5 0 -7 7 -4 15 4
8 8 15 10 15 2 0 4 -7 4 -15z m157 -17 c-3 -8 -6 -5 -6 6 -1 11 2 17 5 13 3
-3 4 -12 1 -19z m873 8 c0 -3 -4 -8 -10 -11 -5 -3 -10 -1 -10 4 0 6 5 11 10
11 6 0 10 -2 10 -4z m-2110 -31 c0 -8 -4 -15 -10 -15 -5 0 -10 7 -10 15 0 8 5
15 10 15 6 0 10 -7 10 -15z m5000 5 c0 -5 -11 -10 -25 -10 -14 0 -25 5 -25 10
0 6 11 10 25 10 14 0 25 -4 25 -10z m-9490 -62 c39 -41 41 -51 25 -91 -7 -17
-6 -18 14 -5 20 11 24 11 37 -6 18 -25 17 -54 -1 -86 -8 -14 -14 -31 -15 -38
0 -19 20 -4 30 22 7 19 9 18 17 -14 5 -19 16 -36 24 -36 21 -3 59 -16 59 -21
0 -2 -5 -13 -10 -24 -11 -20 3 -28 15 -9 11 18 25 10 25 -14 0 -25 -29 -51
-83 -74 -40 -17 -45 -16 -62 18 -18 35 -20 81 -3 98 9 9 7 12 -10 12 -26 0
-29 6 -71 145 -33 111 -45 165 -37 165 3 0 23 -19 46 -42z m7840 32 c0 -5 -5
-10 -11 -10 -5 0 -7 5 -4 10 3 6 8 10 11 10 2 0 4 -4 4 -10z m1714 -44 c-3
-14 -10 -26 -15 -26 -5 0 -6 7 -4 15 3 8 7 22 10 31 9 27 17 9 9 -20z m-8804
14 c0 -5 -4 -10 -10 -10 -5 0 -10 5 -10 10 0 6 5 10 10 10 6 0 10 -4 10 -10z
m3570 0 c0 -5 -4 -10 -10 -10 -5 0 -10 5 -10 10 0 6 5 10 10 10 6 0 10 -4 10
-10z m5280 -30 c0 -16 -4 -30 -10 -30 -11 0 -14 43 -3 53 11 12 13 8 13 -23z
m-6380 -20 c0 -5 -9 -14 -20 -20 -16 -8 -20 -8 -20 4 0 13 13 23 33 25 4 1 7
-3 7 -9z m2762 -52 c-7 -7 -14 -3 -22 12 -10 18 -9 24 7 35 16 12 18 11 21
-12 2 -14 -1 -30 -6 -35z m2338 52 c0 -5 -5 -10 -11 -10 -5 0 -7 5 -4 10 3 6
8 10 11 10 2 0 4 -4 4 -10z m-799 -43 c-13 -13 -26 -3 -16 12 3 6 11 8 17 5 6
-4 6 -10 -1 -17z m1907 -48 c2 -41 0 -60 -7 -54 -13 14 -19 126 -6 122 6 -2
11 -32 13 -68z m94 49 c-7 -7 -12 -8 -12 -2 0 14 12 26 19 19 2 -3 -1 -11 -7
-17z m-1322 4 c0 -13 -12 -22 -22 -16 -10 6 -1 24 13 24 5 0 9 -4 9 -8z m124
-64 c1 -50 -17 -59 -56 -29 l-26 21 32 34 c36 40 49 33 50 -26z m1222 15 c-10
-10 -19 5 -10 18 6 11 8 11 12 0 2 -7 1 -15 -2 -18z m-9682 -29 c3 -8 2 -12
-4 -9 -6 3 -10 10 -10 16 0 14 7 11 14 -7z m9646 -63 c-11 -23 -23 -41 -25
-41 -8 0 6 52 23 85 12 22 17 26 20 13 2 -9 -6 -35 -18 -57z m-9360 19 c0 -5
-5 -10 -11 -10 -5 0 -7 5 -4 10 3 6 8 10 11 10 2 0 4 -4 4 -10z m5007 -32 c-3
-8 -6 -5 -6 6 -1 11 2 17 5 13 3 -3 4 -12 1 -19z m-5237 -21 c0 -5 -4 -5 -10
-2 -5 3 -10 14 -10 23 0 15 2 15 10 2 5 -8 10 -19 10 -23z m5305 12 c-8 -12
-35 -12 -35 0 0 11 22 20 33 14 4 -2 5 -9 2 -14z m4302 -61 c-3 -7 -5 -2 -5
12 0 14 2 19 5 13 2 -7 2 -19 0 -25z m-4292 12 c8 -13 -5 -13 -25 0 -13 8 -13
10 2 10 9 0 20 -4 23 -10z m4322 -62 c-3 -8 -6 -5 -6 6 -1 11 2 17 5 13 3 -3
4 -12 1 -19z m-8682 2 c3 -5 1 -10 -4 -10 -6 0 -11 5 -11 10 0 6 2 10 4 10 3
0 8 -4 11 -10z m4292 -12 c-3 -8 -6 -5 -6 6 -1 11 2 17 5 13 3 -3 4 -12 1 -19z
m240 0 c-3 -8 -6 -5 -6 6 -1 11 2 17 5 13 3 -3 4 -12 1 -19z m2443 -13 c0 -8
-4 -15 -10 -15 -5 0 -10 7 -10 15 0 8 5 15 10 15 6 0 10 -7 10 -15z m-5170
-19 c0 -3 -4 -8 -10 -11 -5 -3 -10 -1 -10 4 0 6 5 11 10 11 6 0 10 -2 10 -4z
m6858 -49 c2 -27 -1 -47 -7 -47 -6 0 -7 14 -4 34 3 19 1 36 -6 40 -15 10 -14
29 2 24 6 -3 13 -25 15 -51z m-6408 -15 c0 -26 -25 -5 -28 24 -2 28 -2 28 13
10 8 -11 15 -26 15 -34z m4824 32 c3 -8 2 -12 -4 -9 -6 3 -10 10 -10 16 0 14
7 11 14 -7z m146 -5 c-7 -11 -14 -18 -17 -15 -8 8 5 36 17 36 7 0 7 -6 0 -21z
m1342 -11 c-7 -7 -12 -8 -12 -2 0 14 12 26 19 19 2 -3 -1 -11 -7 -17z m-2644
-30 c-7 -19 -38 -22 -38 -4 0 10 9 16 21 16 12 0 19 -5 17 -12z m212 -8 c0 -5
-5 -10 -11 -10 -5 0 -7 5 -4 10 3 6 8 10 11 10 2 0 4 -4 4 -10z m-7158 -32
c-7 -7 -12 -8 -12 -2 0 14 12 26 19 19 2 -3 -1 -11 -7 -17z m8208 9 c0 -8 -11
-24 -25 -37 l-25 -23 0 24 c0 27 17 49 37 49 7 0 13 -6 13 -13z m-6930 -47 c0
-5 -4 -10 -10 -10 -5 0 -10 5 -10 10 0 6 5 10 10 10 6 0 10 -4 10 -10z m8227
-12 c-3 -8 -6 -5 -6 6 -1 11 2 17 5 13 3 -3 4 -12 1 -19z m-8957 -18 c0 -16
-4 -30 -10 -30 -5 0 -10 14 -10 30 0 17 5 30 10 30 6 0 10 -13 10 -30z m7661
-67 c-8 -14 -10 -7 -11 33 0 28 3 54 8 58 11 12 14 -72 3 -91z m-2484 33 c-4
-9 -15 -16 -25 -16 -11 0 -31 -10 -46 -21 -27 -21 -44 -21 -31 1 4 6 25 25 48
41 41 30 66 27 54 -5z m2133 14 c0 -5 -4 -10 -10 -10 -5 0 -10 5 -10 10 0 6 5
10 10 10 6 0 10 -4 10 -10z m1844 -6 c7 -19 -13 -49 -25 -37 -10 10 0 53 11
53 4 0 11 -7 14 -16z m-3929 -13 c-3 -6 -11 -11 -17 -11 -6 0 -6 6 2 15 14 17
26 13 15 -4z m3782 -13 c-3 -8 -6 -5 -6 6 -1 11 2 17 5 13 3 -3 4 -12 1 -19z
m-1667 -23 c-7 -8 -16 -15 -21 -15 -5 0 -6 7 -3 15 4 8 13 15 21 15 13 0 13
-3 3 -15z m1730 5 c0 -5 -5 -10 -11 -10 -5 0 -7 5 -4 10 3 6 8 10 11 10 2 0 4
-4 4 -10z m-3870 -14 c0 -3 -4 -8 -10 -11 -5 -3 -10 -1 -10 4 0 6 5 11 10 11
6 0 10 -2 10 -4z m-5480 -44 c0 -21 -2 -24 -10 -12 -13 20 -13 53 0 45 6 -3
10 -18 10 -33z m8001 -5 c-16 -16 -26 0 -10 19 9 11 15 12 17 4 2 -6 -1 -17
-7 -23z m1499 -2 c0 -14 -2 -25 -4 -25 -2 0 -6 11 -8 25 -3 14 -1 25 3 25 5 0
9 -11 9 -25z m-47 -87 c-8 -46 -18 -87 -24 -92 -12 -13 -12 15 2 90 14 79 19
95 28 89 5 -2 2 -42 -6 -87z m-1861 0 c-7 -7 -12 -8 -12 -2 0 14 12 26 19 19
2 -3 -1 -11 -7 -17z m397 -4 c14 -32 -5 -29 -27 4 -13 19 -13 22 0 22 8 0 20
-12 27 -26z m662 -17 c-8 -8 -11 -7 -11 4 0 20 13 34 18 19 3 -7 -1 -17 -7
-23z m746 1 c-3 -7 -5 -2 -5 12 0 14 2 19 5 13 2 -7 2 -19 0 -25z m-8087 -14
c0 -2 -7 -4 -15 -4 -8 0 -15 4 -15 10 0 5 7 7 15 4 8 -4 15 -8 15 -10z m8168
-97 c-13 -115 -28 -142 -28 -51 0 49 6 84 26 153 12 39 13 -7 2 -102z m-78 52
c0 -11 -4 -17 -10 -14 -5 3 -10 15 -10 26 0 11 5 17 10 14 6 -3 10 -15 10 -26z
m-2455 11 c-3 -5 -10 -10 -16 -10 -5 0 -9 5 -9 10 0 6 7 10 16 10 8 0 12 -4 9
-10z m-2967 -22 c-4 -27 -28 -36 -28 -10 0 20 8 32 22 32 5 0 8 -10 6 -22z
m992 -98 c0 -5 -4 -10 -10 -10 -5 0 -10 5 -10 10 0 6 5 10 10 10 6 0 10 -4 10
-10z m3510 -10 c0 -5 -4 -10 -10 -10 -5 0 -10 5 -10 10 0 6 5 10 10 10 6 0 10
-4 10 -10z m-5360 -51 c0 -5 -4 -9 -10 -9 -5 0 -10 7 -10 16 0 8 5 12 10 9 6
-3 10 -10 10 -16z m1978 -34 c-3 -3 -9 2 -12 12 -6 14 -5 15 5 6 7 -7 10 -15
7 -18z m-5111 -7 c-3 -8 -6 -5 -6 6 -1 11 2 17 5 13 3 -3 4 -12 1 -19z m6100
16 c-3 -3 -12 -4 -19 -1 -8 3 -5 6 6 6 11 1 17 -2 13 -5z m3274 -37 c-13 -13
-15 1 -4 30 7 17 8 17 11 -1 2 -10 -1 -23 -7 -29z m-9537 -31 c-3 -9 -10 -16
-15 -16 -11 0 -12 43 -2 54 10 10 24 -20 17 -38z m9573 22 c-3 -8 -6 -5 -6 6
-1 11 2 17 5 13 3 -3 4 -12 1 -19z m-4327 -28 c0 -5 -4 -10 -10 -10 -5 0 -10
5 -10 10 0 6 5 10 10 10 6 0 10 -4 10 -10z m-4430 -30 c0 -10 -5 -22 -10 -25
-13 -8 -24 20 -16 41 8 20 26 9 26 -16z m2308 3 c5 -18 -10 -16 -34 2 -18 15
-18 15 5 13 14 -2 26 -9 29 -15z m4282 -13 c0 -5 -4 -10 -10 -10 -5 0 -10 5
-10 10 0 6 5 10 10 10 6 0 10 -4 10 -10z m2101 -37 c-9 -16 -10 -16 -11 -1 0
9 3 25 7 35 7 16 8 17 11 1 2 -10 -1 -25 -7 -35z m119 40 c0 -5 -5 -15 -10
-23 -8 -12 -10 -11 -10 8 0 12 5 22 10 22 6 0 10 -3 10 -7z m-6390 -35 c0 -5
-9 -4 -20 2 -11 6 -20 12 -20 14 0 2 9 2 20 -1 11 -3 20 -9 20 -15z m6350 -30
c0 -23 -3 -29 -11 -21 -6 6 -8 20 -4 32 9 30 15 26 15 -11z m120 22 c0 -5 -2
-10 -4 -10 -3 0 -8 5 -11 10 -3 6 -1 10 4 10 6 0 11 -4 11 -10z m-4400 -26 c0
-8 -4 -12 -10 -9 -5 3 -10 13 -10 21 0 8 5 12 10 9 6 -3 10 -13 10 -21z m2188
-12 c3 -9 -2 -13 -14 -10 -9 1 -19 9 -22 16 -3 9 2 13 14 10 9 -1 19 -9 22
-16z m2202 -99 c-9 -14 -10 -10 -6 22 3 22 7 49 8 60 1 11 3 1 5 -22 2 -24 -1
-51 -7 -60z m-98 31 c-6 -35 -12 -29 -12 14 0 23 3 32 9 24 4 -7 6 -24 3 -38z
m82 37 c8 -12 -3 -41 -15 -41 -5 0 -9 11 -9 25 0 25 14 34 24 16z m-9707 -23
c-3 -8 -6 -5 -6 6 -1 11 2 17 5 13 3 -3 4 -12 1 -19z m990 -23 c18 -54 11 -53
-15 1 -13 27 -18 44 -11 42 7 -2 18 -21 26 -43z m6703 9 c0 -8 -4 -12 -10 -9
-5 3 -10 13 -10 21 0 8 5 12 10 9 6 -3 10 -13 10 -21z m-4720 7 c0 -6 -4 -13
-10 -16 -5 -3 -10 1 -10 9 0 9 5 16 10 16 6 0 10 -4 10 -9z m-2890 -21 c0 -5
-5 -10 -11 -10 -5 0 -7 5 -4 10 3 6 8 10 11 10 2 0 4 -4 4 -10z m9600 -45 c0
-8 -4 -15 -9 -15 -13 0 -22 16 -14 24 11 11 23 6 23 -9z m-8843 -17 c-3 -8 -6
-5 -6 6 -1 11 2 17 5 13 3 -3 4 -12 1 -19z m6573 18 c0 -3 -4 -8 -10 -11 -5
-3 -10 -1 -10 4 0 6 5 11 10 11 6 0 10 -2 10 -4z m2317 -38 c-3 -8 -6 -5 -6 6
-1 11 2 17 5 13 3 -3 4 -12 1 -19z m-9701 -25 c-11 -11 -19 6 -11 24 8 17 8
17 12 0 3 -10 2 -21 -1 -24z m7011 15 c-3 -8 -6 -5 -6 6 -1 11 2 17 5 13 3 -3
4 -12 1 -19z m530 -30 c-3 -8 -6 -5 -6 6 -1 11 2 17 5 13 3 -3 4 -12 1 -19z
m2073 -48 c0 -13 -1 -13 -10 0 -5 8 -10 22 -10 30 0 13 1 13 10 0 5 -8 10 -22
10 -30z m-9600 15 c0 -8 -4 -15 -10 -15 -5 0 -10 7 -10 15 0 8 5 15 10 15 6 0
10 -7 10 -15z m9760 -33 c0 -21 -2 -22 -22 -10 -19 10 -20 13 -7 16 12 2 15
10 12 25 -4 18 -3 19 6 7 6 -8 11 -25 11 -38z m-2479 -9 c-10 -17 -10 -16 -11
3 0 23 13 41 18 25 2 -6 -1 -18 -7 -28z m-7328 -40 c-8 -52 -13 -54 -13 -5 0
23 4 42 9 42 6 0 7 -17 4 -37z m9691 -16 c5 -27 4 -37 -3 -32 -6 3 -11 22 -11
42 0 44 5 41 14 -10z m-9614 7 c0 -17 -22 -14 -28 4 -2 7 3 12 12 12 9 0 16
-7 16 -16z m-41 -78 c-5 -6 -9 10 -8 40 l1 49 8 -40 c5 -22 4 -44 -1 -49z
m1361 69 c0 -8 -4 -15 -10 -15 -5 0 -10 7 -10 15 0 8 5 15 10 15 6 0 10 -7 10
-15z m8345 -8 c0 -26 -20 -25 -23 2 -3 16 1 22 10 19 7 -3 13 -12 13 -21z
m-9585 -79 c0 -25 -3 -29 -10 -18 -13 20 -13 50 0 50 6 0 10 -15 10 -32z
m6940 -63 c-16 -77 -35 -84 -25 -10 4 32 12 70 18 84 10 26 11 26 14 3 3 -12
-1 -47 -7 -77z m-7149 22 c-13 -13 -15 1 -4 30 7 17 8 17 11 -1 2 -10 -1 -23
-7 -29z m1666 -23 c-3 -3 -12 -4 -19 -1 -8 3 -5 6 6 6 11 1 17 -2 13 -5z
m8160 -56 c-3 -8 -6 -5 -6 6 -1 11 2 17 5 13 3 -3 4 -12 1 -19z m-3100 -4 c21
-6 22 -8 8 -34 -19 -37 -35 -47 -28 -18 l6 23 -27 -24 -26 -24 0 22 c0 29 17
61 33 61 7 0 22 -3 34 -6z m3309 -41 c-10 -11 -25 18 -18 35 4 13 8 11 15 -6
6 -12 7 -25 3 -29z m-3169 -10 c-15 -16 -17 -16 -17 -1 0 9 6 18 13 21 20 7
22 -2 4 -20z m-6797 2 c10 -12 9 -16 -6 -21 -11 -4 -27 -16 -36 -28 -17 -21
-18 -21 -18 15 0 20 3 39 7 42 11 12 40 8 53 -8z m6730 -39 c0 -12 -7 -31 -16
-42 -15 -18 -15 -17 -10 15 3 18 6 40 6 48 0 8 5 11 10 8 6 -3 10 -16 10 -29z
m3185 24 c3 -5 1 -10 -4 -10 -6 0 -11 5 -11 10 0 6 2 10 4 10 3 0 8 -4 11 -10z
m-3035 -16 c0 -8 -5 -12 -10 -9 -6 4 -8 11 -5 16 9 14 15 11 15 -7z m2919 -52
c1 -7 -3 -10 -9 -7 -5 3 -10 18 -9 33 0 24 1 25 9 7 5 -11 9 -26 9 -33z
m-5416 13 c-7 -21 -13 -19 -13 6 0 11 4 18 10 14 5 -3 7 -12 3 -20z m5377 -1
c0 -8 -4 -14 -10 -14 -5 0 -10 9 -10 21 0 11 5 17 10 14 6 -3 10 -13 10 -21z
m210 -12 c0 -7 -4 -10 -10 -7 -5 3 -10 16 -10 28 0 18 2 19 10 7 5 -8 10 -21
10 -28z m-213 -54 c-3 -8 -6 -5 -6 6 -1 11 2 17 5 13 3 -3 4 -12 1 -19z m48 2
c3 -5 1 -10 -4 -10 -6 0 -11 5 -11 10 0 6 2 10 4 10 3 0 8 -4 11 -10z m-6538
-32 c-3 -8 -6 -5 -6 6 -1 11 2 17 5 13 3 -3 4 -12 1 -19z m6693 8 c0 -3 -4 -8
-10 -11 -5 -3 -10 -1 -10 4 0 6 5 11 10 11 6 0 10 -2 10 -4z m-3727 -13 c6
-11 -46 -105 -66 -117 -12 -8 -21 -5 -36 8 -23 21 -27 15 -10 -16 6 -11 8 -22
6 -25 -3 -3 -13 9 -22 27 -15 29 -15 33 5 65 20 33 48 51 59 39 3 -4 0 -9 -7
-11 -23 -8 -34 -41 -21 -64 l11 -21 14 23 c7 13 21 41 30 62 16 36 28 45 37
30z m3577 -57 c0 -6 -9 0 -20 14 -26 33 -25 52 0 21 11 -13 20 -28 20 -35z
m-3535 34 c-3 -5 -10 -10 -16 -10 -5 0 -9 5 -9 10 0 6 7 10 16 10 8 0 12 -4 9
-10z m-3809 -97 c-7 -7 -26 7 -26 19 0 6 6 6 15 -2 9 -7 13 -15 11 -17z m3594
-12 c-11 -21 -50 -30 -50 -12 0 15 54 54 58 42 2 -5 -2 -19 -8 -30z m-140 -56
c0 -8 -4 -15 -10 -15 -5 0 -10 7 -10 15 0 8 5 15 10 15 6 0 10 -7 10 -15z
m-130 -15 c0 -5 -5 -10 -11 -10 -5 0 -7 5 -4 10 3 6 8 10 11 10 2 0 4 -4 4
-10z m85 0 c-3 -5 -19 -10 -36 -10 -16 0 -29 5 -29 10 0 6 16 10 36 10 21 0
33 -4 29 -10z m540 -50 c-19 -21 -35 -26 -35 -12 0 5 10 14 23 20 31 15 32 14
12 -8z m-465 -130 c0 -5 -4 -10 -10 -10 -5 0 -10 5 -10 10 0 6 5 10 10 10 6 0
10 -4 10 -10z m375 -20 c-3 -5 -10 -10 -16 -10 -5 0 -9 5 -9 10 0 6 7 10 16
10 8 0 12 -4 9 -10z m-1375 -60 c-19 -13 -30 -13 -30 0 0 6 10 10 23 10 18 0
19 -2 7 -10z m-2560 -25 c7 -9 11 -18 8 -20 -9 -10 -38 7 -38 21 0 18 14 18
30 -1z m220 -124 c-1 -11 -9 -6 -25 14 -32 39 -32 55 0 25 14 -13 25 -31 25
-39z m-401 -37 c23 -42 46 -95 51 -118 5 -24 12 -51 16 -62 4 -13 -3 -10 -24
12 -39 41 -112 244 -88 244 2 0 23 -34 45 -76z m1411 41 c0 -8 -4 -15 -10 -15
-5 0 -10 7 -10 15 0 8 5 15 10 15 6 0 10 -7 10 -15z m-100 -48 c0 -5 -4 -5
-10 -2 -5 3 -10 14 -10 23 0 15 2 15 10 2 5 -8 10 -19 10 -23z m2180 -11 c0
-3 -4 -8 -10 -11 -5 -3 -10 -1 -10 4 0 6 5 11 10 11 6 0 10 -2 10 -4z m-50
-30 c0 -2 -8 -10 -17 -17 -16 -13 -17 -12 -4 4 13 16 21 21 21 13z m-153 -68
c-3 -8 -6 -5 -6 6 -1 11 2 17 5 13 3 -3 4 -12 1 -19z m523 -22 c0 -3 -4 -8
-10 -11 -5 -3 -10 -1 -10 4 0 6 5 11 10 11 6 0 10 -2 10 -4z m-2393 -132 c-3
-3 -12 -4 -19 -1 -8 3 -5 6 6 6 11 1 17 -2 13 -5z m2043 -33 c-6 -12 -15 -21
-21 -21 -10 0 -5 13 14 38 15 19 20 7 7 -17z m172 -3 c-7 -7 -12 -8 -12 -2 0
14 12 26 19 19 2 -3 -1 -11 -7 -17z m-2242 -3 c0 -9 -51 -25 -61 -19 -17 10 1
24 32 24 16 0 29 -2 29 -5z m-86 -31 c8 -20 8 -24 -1 -24 -17 0 -35 19 -29 29
10 16 23 14 30 -5z m1947 -17 l-23 -22 17 28 c10 15 20 25 23 22 3 -3 -5 -16
-17 -28z m-2396 3 c3 -5 -1 -10 -9 -10 -9 0 -16 5 -16 10 0 6 4 10 9 10 6 0
13 -4 16 -10z m2665 0 c0 -5 -9 -14 -20 -20 -22 -12 -27 -1 -8 18 14 14 28 16
28 2z m61 -43 c-16 -16 -26 0 -10 19 9 11 15 12 17 4 2 -6 -1 -17 -7 -23z
m-166 -16 c3 -5 1 -12 -5 -16 -5 -3 -10 1 -10 9 0 18 6 21 15 7z m55 -85 c0
-3 -4 -8 -10 -11 -5 -3 -10 -1 -10 4 0 6 5 11 10 11 6 0 10 -2 10 -4z m-75
-66 c-3 -5 -13 -10 -21 -10 -8 0 -12 5 -9 10 3 6 13 10 21 10 8 0 12 -4 9 -10z
m-117 -105 c-6 -14 -15 -25 -20 -25 -9 0 -4 14 15 38 15 19 18 14 5 -13z m-93
-65 c-3 -5 -10 -10 -16 -10 -5 0 -9 5 -9 10 0 6 7 10 16 10 8 0 12 -4 9 -10z
m85 -29 c0 -5 -7 -14 -15 -21 -16 -14 -18 -10 -9 14 6 17 24 22 24 7z m-940
-62 c0 -5 -4 -9 -10 -9 -5 0 -10 7 -10 16 0 8 5 12 10 9 6 -3 10 -10 10 -16z
m-422 -497 c2 -7 -3 -12 -12 -12 -9 0 -16 7 -16 16 0 17 22 14 28 -4z m522
-72 c0 -5 -5 -10 -11 -10 -5 0 -7 5 -4 10 3 6 8 10 11 10 2 0 4 -4 4 -10z
m-450 -155 c11 -13 10 -14 -4 -9 -9 3 -16 10 -16 15 0 13 6 11 20 -6z m-1059
-52 c13 -16 12 -17 -3 -4 -10 7 -18 15 -18 17 0 8 8 3 21 -13z m87 -103 c7
-11 11 -20 9 -20 -2 0 -12 9 -22 20 -10 11 -14 20 -9 20 5 0 15 -9 22 -20z"/>
<path d="M917 5093 c-4 -3 -7 -11 -7 -17 0 -6 5 -5 12 2 6 6 9 14 7 17 -3 3
-9 2 -12 -2z"/>
<path d="M9067 5293 c-4 -3 -7 -11 -7 -17 0 -6 5 -5 12 2 6 6 9 14 7 17 -3 3
-9 2 -12 -2z"/>
<path d="M10510 9250 c0 -5 5 -10 10 -10 6 0 10 5 10 10 0 6 -4 10 -10 10 -5
0 -10 -4 -10 -10z"/>
<path d="M520 8959 c0 -5 5 -7 10 -4 6 3 10 8 10 11 0 2 -4 4 -10 4 -5 0 -10
-5 -10 -11z"/>
<path d="M158 7970 c-11 -38 -10 -56 3 -43 6 6 9 23 7 39 l-3 29 -7 -25z"/>
<path d="M9900 6525 c-24 -13 -24 -14 -4 -15 12 0 27 7 34 15 16 19 3 19 -30
0z"/>
<path d="M9627 6193 c-10 -9 -9 -43 2 -43 13 0 23 32 13 42 -5 5 -11 5 -15 1z"/>
<path d="M9727 6174 c-16 -9 -27 -18 -24 -21 6 -5 67 24 67 32 0 8 -14 5 -43
-11z"/>
<path d="M9585 6100 c3 -5 8 -10 11 -10 2 0 4 5 4 10 0 6 -5 10 -11 10 -5 0
-7 -4 -4 -10z"/>
<path d="M9410 5821 c0 -5 5 -13 10 -16 6 -3 10 -2 10 4 0 5 -4 13 -10 16 -5
3 -10 2 -10 -4z"/>
<path d="M9430 5710 c0 -5 5 -10 10 -10 6 0 10 5 10 10 0 6 -4 10 -10 10 -5 0
-10 -4 -10 -10z"/>
<path d="M9330 5680 c0 -5 4 -10 9 -10 6 0 13 5 16 10 3 6 -1 10 -9 10 -9 0
-16 -4 -16 -10z"/>
<path d="M9480 5630 c0 -5 5 -10 11 -10 5 0 7 5 4 10 -3 6 -8 10 -11 10 -2 0
-4 -4 -4 -10z"/>
<path d="M10541 5614 c0 -11 3 -14 6 -6 3 7 2 16 -1 19 -3 4 -6 -2 -5 -13z"/>
<path d="M9360 5600 c20 -13 33 -13 25 0 -3 6 -14 10 -23 10 -15 0 -15 -2 -2
-10z"/>
<path d="M9270 5560 c0 -4 14 -13 31 -19 39 -13 42 -14 35 -2 -8 13 -66 32
-66 21z"/>
<path d="M9252 5400 c0 -14 2 -19 5 -12 2 6 2 18 0 25 -3 6 -5 1 -5 -13z"/>
<path d="M10424 5266 c-3 -14 -1 -33 5 -43 8 -15 10 -10 11 25 0 47 -6 55 -16
18z"/>
<path d="M540 5053 c0 -10 5 -25 10 -33 8 -12 10 -9 10 12 0 15 -4 30 -10 33
-5 3 -10 -2 -10 -12z"/>
<path d="M9050 4957 c0 -15 50 -90 56 -84 5 4 -45 97 -52 97 -2 0 -4 -6 -4
-13z"/>
<path d="M10050 4644 c0 -8 5 -12 10 -9 6 4 8 11 5 16 -9 14 -15 11 -15 -7z"/>
<path d="M933 4595 c0 -22 2 -30 4 -17 2 12 2 30 0 40 -3 9 -5 -1 -4 -23z"/>
<path d="M1052 4550 c0 -14 2 -19 5 -12 2 6 2 18 0 25 -3 6 -5 1 -5 -13z"/>
<path d="M1331 4444 c0 -11 3 -14 6 -6 3 7 2 16 -1 19 -3 4 -6 -2 -5 -13z"/>
<path d="M1321 4354 c0 -11 3 -14 6 -6 3 7 2 16 -1 19 -3 4 -6 -2 -5 -13z"/>
<path d="M1322 4255 c0 -16 2 -22 5 -12 2 9 2 23 0 30 -3 6 -5 -1 -5 -18z"/>
<path d="M10571 3844 c0 -11 3 -14 6 -6 3 7 2 16 -1 19 -3 4 -6 -2 -5 -13z"/>
<path d="M1 3677 l0 -178 25 -9 c15 -6 24 -17 24 -32 0 -17 -3 -19 -12 -10
-23 23 -38 13 -38 -27 0 -44 11 -51 95 -51 79 0 88 -17 14 -25 -75 -9 -109
-20 -109 -36 0 -7 9 -9 26 -5 15 4 40 9 58 12 l31 5 -28 -16 c-28 -16 -37 -45
-14 -45 7 0 37 9 67 19 67 24 80 16 80 -47 0 -42 1 -45 16 -30 13 12 14 22 5
52 -7 28 -6 47 4 77 12 34 12 39 -1 39 -8 0 -19 -11 -26 -25 -14 -31 -32 -21
-23 14 10 41 25 54 43 39 13 -11 14 -10 10 2 -2 8 -13 20 -24 25 -11 6 -18 18
-16 29 2 10 -1 23 -7 29 -6 6 -11 21 -11 32 0 12 -9 30 -20 40 -11 10 -20 31
-20 47 0 36 -26 88 -81 160 -24 31 -49 65 -56 75 -9 14 -12 -19 -12 -160z m34
43 c3 -5 -1 -10 -9 -10 -9 0 -16 5 -16 10 0 6 4 10 9 10 6 0 13 -4 16 -10z
m53 -42 c15 -15 16 -48 2 -48 -5 0 -10 9 -10 20 0 11 -4 20 -10 20 -5 0 -10 5
-10 10 0 14 13 13 28 -2z m41 -107 c12 -21 -10 -63 -23 -43 -4 6 -13 9 -20 6
-18 -7 -29 25 -15 42 16 20 47 17 58 -5z m-89 -51 c0 -5 -4 -10 -9 -10 -6 0
-13 5 -16 10 -3 6 1 10 9 10 9 0 16 -4 16 -10z m140 -37 c0 -9 -14 -13 -40
-13 -23 0 -40 -5 -40 -11 0 -8 -5 -8 -15 1 -23 19 -18 30 15 30 20 0 33 7 41
22 11 21 12 21 25 3 8 -10 14 -25 14 -32z m-30 -72 c0 -11 -4 -23 -10 -26 -6
-4 -10 5 -10 19 0 14 5 26 10 26 6 0 10 -9 10 -19z m-56 -6 c-4 -9 -19 -15
-35 -15 -51 0 -31 25 23 29 12 1 15 -4 12 -14z"/>
<path d="M482 3757 c-26 -27 -28 -37 -7 -37 16 0 38 35 33 51 -2 6 -13 0 -26
-14z"/>
<path d="M530 3680 c0 -5 7 -10 16 -10 8 0 12 5 9 10 -3 6 -10 10 -16 10 -5 0
-9 -4 -9 -10z"/>
<path d="M8137 3653 c-4 -3 -7 -11 -7 -17 0 -6 5 -5 12 2 6 6 9 14 7 17 -3 3
-9 2 -12 -2z"/>
<path d="M173 3620 c4 -14 7 -31 7 -37 0 -7 18 -25 40 -39 30 -20 44 -24 52
-16 8 8 7 13 -5 18 -9 3 -17 11 -17 16 0 6 6 6 15 -2 8 -6 22 -10 32 -7 13 3
3 11 -32 26 -27 12 -61 32 -74 44 l-24 22 6 -25z"/>
<path d="M10720 3600 c0 -5 5 -10 10 -10 6 0 10 5 10 10 0 6 -4 10 -10 10 -5
0 -10 -4 -10 -10z"/>
<path d="M398 3546 c-31 -20 -47 -38 -47 -52 -1 -12 -8 -25 -17 -28 -10 -4
-14 -14 -11 -26 3 -10 0 -21 -7 -23 -8 -3 -7 -9 3 -20 11 -14 11 -21 -3 -42
-24 -37 -19 -66 18 -110 l34 -40 7 37 c4 20 4 41 0 47 -4 7 4 11 19 11 13 0
37 10 53 23 40 34 63 40 63 19 0 -12 11 -5 34 23 19 22 37 37 41 33 4 -4 -4
-21 -19 -38 -14 -17 -26 -36 -26 -41 0 -6 -7 -9 -16 -7 -10 2 -19 -3 -21 -9
-3 -7 3 -13 12 -13 9 0 15 -6 12 -12 -2 -7 0 -21 4 -30 7 -12 4 -18 -11 -23
-11 -3 -20 -12 -20 -20 0 -23 38 -5 65 31 16 21 31 31 40 28 9 -4 15 0 15 9 0
8 11 31 25 51 14 20 25 39 25 41 0 12 -40 3 -55 -11 -22 -23 -29 -11 -16 27 6
18 11 44 11 58 -1 24 -1 24 -12 7 -10 -18 -13 -15 -34 25 l-23 44 -1 -37 c0
-46 -18 -50 -22 -5 -2 26 -7 32 -27 32 -14 0 -28 -9 -35 -20 -48 -88 -56 -84
-21 12 35 99 36 98 -37 49z m102 -70 c0 -16 -18 -31 -27 -22 -8 8 5 36 17 36
5 0 10 -6 10 -14z m28 -75 c3 -8 -1 -12 -9 -9 -7 2 -15 10 -17 17 -3 8 1 12 9
9 7 -2 15 -10 17 -17z m-159 -50 c-28 -36 -49 -51 -49 -36 0 9 73 86 77 81 3
-3 -10 -23 -28 -45z m26 -11 c-3 -5 -11 -10 -16 -10 -6 0 -7 5 -4 10 3 6 11
10 16 10 6 0 7 -4 4 -10z"/>
<path d="M7910 3520 c0 -5 5 -10 10 -10 6 0 10 5 10 10 0 6 -4 10 -10 10 -5 0
-10 -4 -10 -10z"/>
<path d="M640 3420 c0 -16 5 -30 10 -30 6 0 10 14 10 30 0 17 -4 30 -10 30 -5
0 -10 -13 -10 -30z"/>
<path d="M286 3371 c-4 -7 -5 -15 -2 -18 9 -9 19 4 14 18 -4 11 -6 11 -12 0z"/>
<path d="M0 3349 c0 -5 5 -7 10 -4 5 3 10 8 10 11 0 2 -4 4 -10 4 -5 0 -10 -5
-10 -11z"/>
<path d="M446 3299 c-20 -22 -42 -51 -48 -65 -12 -27 -2 -47 12 -24 8 13 12
12 25 -5 15 -20 15 -20 35 4 15 17 20 38 20 77 0 30 -2 54 -4 54 -2 0 -20 -18
-40 -41z m10 -67 c-4 -3 -11 -1 -17 5 -8 8 -7 17 3 32 13 22 13 22 16 -5 2
-14 1 -28 -2 -32z"/>
<path d="M93 3248 c-46 -10 -58 -28 -20 -28 13 0 32 -7 43 -15 22 -16 64 -20
64 -5 0 6 -12 10 -26 10 -14 0 -23 4 -19 10 3 6 15 10 25 10 13 0 17 5 14 15
-7 17 -20 17 -81 3z"/>
<path d="M260 3175 c-11 -13 -10 -14 4 -9 9 3 16 10 16 15 0 13 -6 11 -20 -6z"/>
<path d="M10736 3106 c-28 -27 -30 -50 -1 -26 12 10 15 10 15 -1 0 -9 3 -10
11 -2 6 6 9 21 7 33 -3 22 -3 22 -32 -4z"/>
<path d="M10730 3044 c0 -5 7 -19 15 -30 8 -10 15 -14 15 -8 0 5 -7 19 -15 30
-8 10 -15 14 -15 8z"/>
<path d="M6790 2605 c-7 -9 -10 -18 -7 -21 3 -3 10 4 17 15 13 25 8 27 -10 6z"/>
<path d="M10700 365 c-28 -25 -55 -45 -60 -45 -4 0 -75 -61 -157 -136 -81 -74
-158 -140 -170 -146 -13 -6 -23 -14 -23 -18 0 -12 117 -20 301 -20 l179 0 0
205 c0 125 -4 205 -10 205 -5 0 -32 -20 -60 -45z"/>
</g>
</svg>
